<mxfile host="Electron" modified="2023-12-11T20:02:20.990Z" agent="Mozilla/5.0 (Windows NT 10.0; Win64; x64) AppleWebKit/537.36 (KHTML, like Gecko) draw.io/21.4.0 Chrome/112.0.5615.204 Electron/24.5.1 Safari/537.36" etag="EPYash4-PUby5OW8amHF" version="21.4.0" type="device">
  <diagram name="PÃ¡gina-1" id="KM0xF55Ov5RFKz6kx0kO">
    <mxGraphModel dx="1395" dy="716" grid="1" gridSize="10" guides="1" tooltips="1" connect="1" arrows="1" fold="1" page="1" pageScale="1" pageWidth="827" pageHeight="1169" math="0" shadow="0">
      <root>
        <mxCell id="0" />
        <mxCell id="1" parent="0" />
        <mxCell id="b_Wbd-ZXqIB6Z8tAtHYO-10" style="edgeStyle=orthogonalEdgeStyle;rounded=0;orthogonalLoop=1;jettySize=auto;html=1;" edge="1" parent="1" source="b_Wbd-ZXqIB6Z8tAtHYO-1" target="b_Wbd-ZXqIB6Z8tAtHYO-6">
          <mxGeometry relative="1" as="geometry" />
        </mxCell>
        <mxCell id="b_Wbd-ZXqIB6Z8tAtHYO-13" style="edgeStyle=orthogonalEdgeStyle;rounded=0;orthogonalLoop=1;jettySize=auto;html=1;entryX=0.5;entryY=0;entryDx=0;entryDy=0;" edge="1" parent="1" source="b_Wbd-ZXqIB6Z8tAtHYO-1" target="b_Wbd-ZXqIB6Z8tAtHYO-5">
          <mxGeometry relative="1" as="geometry" />
        </mxCell>
        <mxCell id="b_Wbd-ZXqIB6Z8tAtHYO-1" value="" style="dashed=0;outlineConnect=0;html=1;align=center;labelPosition=center;verticalLabelPosition=bottom;verticalAlign=top;shape=mxgraph.weblogos.github" vertex="1" parent="1">
          <mxGeometry x="230" y="316.5" width="75" height="75" as="geometry" />
        </mxCell>
        <mxCell id="b_Wbd-ZXqIB6Z8tAtHYO-2" value="" style="editableCssRules=.*;html=1;shape=image;verticalLabelPosition=bottom;labelBackgroundColor=#ffffff;verticalAlign=top;aspect=fixed;imageAspect=0;image=data:image/svg+xml,PHN2ZyB4bWxucz0iaHR0cDovL3d3dy53My5vcmcvMjAwMC9zdmciIHhtbG5zOnY9Imh0dHBzOi8vdmVjdGEuaW8vbmFubyIgd2lkdGg9IjcwMi44NDYzMTM0NzY1NjI1IiBoZWlnaHQ9IjY4MS45NjcxMDIwNTA3ODEyIiB2aWV3Qm94PSIxMC4wMDEwMjYxNTM1NjQ0NTMgMTAuMDAwOTMzNjQ3MTU1NzYyIDcwMi44NDYzMTM0NzY1NjI1IDY4MS45NjcxMDIwNTA3ODEyIj4mI3hhOwk8c3R5bGUgdHlwZT0idGV4dC9jc3MiPiYjeGE7CS5zdDB7ZmlsbDojMzI2Y2U1O30mI3hhOwkuc3Qxe2ZpbGw6I2ZmZjt9JiN4YTsJPC9zdHlsZT4mI3hhOwk8cGF0aCBjbGFzcz0ic3QwIiBkPSJNMzU4Ljk4NyAxMC4wNmMtNi4yMTMuMzEzLTEyLjMwMSAxLjg1NC0xNy45MDYgNC41MzFMOTYuNzM3IDEzMS4zNDJjLTEyLjgxMSA2LjExOC0yMi4xMTYgMTcuNjg5LTI1LjI4MSAzMS40MzhsLTYwLjI4MSAyNjIuMjVjLTIuODEyIDEyLjIwNy0uNTI0IDI1LjAyNCA2LjM0NCAzNS41MzFhNDYuMzUgNDYuMzUgMCAwIDAgMi42NTYgMy42ODhsMTY5LjEyNSAyMTAuMjgxYzguODY4IDExLjAyMiAyMi4zMTMgMTcuNDQgMzYuNTMxIDE3LjQzOGwyNzEuMjE5LS4wNjJjMTQuMjEyLjAxIDI3LjY1Ny02LjM5NiAzNi41MzEtMTcuNDA2bDE2OS4wNjMtMjEwLjMxM2M4Ljg3My0xMS4wMjggMTIuMTk3LTI1LjQ2NCA5LjAzMS0zOS4yMTlsLTYwLjM3NS0yNjIuMjVjLTMuMTY1LTEzLjc0OC0xMi40Ny0yNS4zMTktMjUuMjgxLTMxLjQzN0wzODEuNjQzIDE0LjU5MmMtNy4wNS0zLjM2OC0xNC44NDEtNC45MjYtMjIuNjU2LTQuNTMxeiIvPiYjeGE7CTxwYXRoIGNsYXNzPSJzdDEgc3QyIiBkPSJNMzYxLjQwOCA5OS4zMDhjLTguMDc3LjAwMS0xNC42MjYgNy4yNzYtMTQuNjI1IDE2LjI1IDAgLjEzOC4wMjguMjY5LjAzMS40MDYtLjAxMiAxLjIxOS0uMDcxIDIuNjg4LS4wMzEgMy43NS4xOTMgNS4xNzYgMS4zMjEgOS4xMzcgMiAxMy45MDYgMS4yMyAxMC4yMDcgMi4yNjEgMTguNjY3IDEuNjI1IDI2LjUzMS0uNjE5IDIuOTY1LTIuODAzIDUuNjc3LTQuNzUgNy41NjNsLS4zNDQgNi4xODhjLTguNzc3LjcyNy0xNy42MTIgMi4wNTktMjYuNDM3IDQuMDYzLTM3Ljk3NSA4LjYyMi03MC42NyAyOC4xODMtOTUuNTYyIDU0LjU5NC0xLjYxNS0xLjEwMi00LjQ0MS0zLjEyOS01LjI4MS0zLjc1LTIuNjExLjM1My01LjI1IDEuMTU4LTguNjg3LS44NDQtNi41NDUtNC40MDYtMTIuNTA2LTEwLjQ4Ny0xOS43MTktMTcuODEyLTMuMzA1LTMuNTA0LTUuNjk4LTYuODQxLTkuNjI1LTEwLjIxOS0uODkyLS43NjctMi4yNTMtMS44MDUtMy4yNS0yLjU5NC0zLjA3LTIuNDQ4LTYuNjkxLTMuNzI0LTEwLjE4Ny0zLjg0NC00LjQ5Ni0uMTU0LTguODI0IDEuNjA0LTExLjY1NiA1LjE1Ni01LjAzNSA2LjMxNS0zLjQyMyAxNS45NjggMy41OTQgMjEuNTYzLjA3MS4wNTcuMTQ3LjEwMS4yMTkuMTU2Ljk2NC43ODIgMi4xNDUgMS43ODMgMy4wMzEgMi40MzggNC4xNjcgMy4wNzcgNy45NzMgNC42NTEgMTIuMTI1IDcuMDk0IDguNzQ3IDUuNDAyIDE1Ljk5OCA5Ljg4MSAyMS43NSAxNS4yODEgMi4yNDYgMi4zOTQgMi42MzkgNi42MTMgMi45MzggOC40MzhsNC42ODggNC4xODhjLTI1LjA5MyAzNy43NjQtMzYuNzA3IDg0LjQwOS0yOS44NDQgMTMxLjkzOGwtNi4xMjUgMS43ODFjLTEuNjE0IDIuMDg1LTMuODk1IDUuMzY1LTYuMjgxIDYuMzQ0LTcuNTI1IDIuMzctMTUuOTk0IDMuMjQxLTI2LjIxOSA0LjMxMy00LjguMzk5LTguOTQyLjE2MS0xNC4wMzEgMS4xMjUtMS4xMi4yMTItMi42ODEuNjE5LTMuOTA2LjkwNi0uMDQzLjAwOS0uMDgyLjAyMi0uMTI1LjAzMS0uMDY3LjAxNS0uMTU1LjA0OC0uMjE5LjA2My04LjYyIDIuMDgzLTE0LjE1OCAxMC4wMDYtMTIuMzc1IDE3LjgxM3MxMC4yMDMgMTIuNTU3IDE4Ljg3NSAxMC42ODhjLjA2My0uMDE0LjE1NC0uMDE3LjIxOS0uMDMxLjA5OC0uMDIyLjE4NC0uMDcuMjgxLS4wOTQgMS4yMDktLjI2NSAyLjcyNC0uNTYxIDMuNzgxLS44NDQgNS4wMDMtMS4zNCA4LjYyNy0zLjMwOCAxMy4xMjUtNS4wMzEgOS42NzctMy40NzEgMTcuNjkyLTYuMzcgMjUuNS03LjUgMy4yNjEtLjI1NSA2LjY5NyAyLjAxMiA4LjQwNiAyLjk2OWw2LjM3NS0xLjA5NGMxNC42NyA0NS40ODMgNDUuNDE0IDgyLjI0NSA4NC4zNDQgMTA1LjMxMmwtMi42NTYgNi4zNzVjLjk1NyAyLjQ3NSAyLjAxMyA1LjgyNSAxLjMgOC4yNjktMi44MzkgNy4zNjEtNy43MDEgMTUuMTMxLTEzLjIzOCAyMy43OTMtMi42ODEgNC4wMDItNS40MjUgNy4xMDgtNy44NDQgMTEuNjg4LS41NzkgMS4wOTYtMS4zMTYgMi43NzktMS44NzUgMy45MzgtMy43NTkgOC4wNDItMS4wMDIgMTcuMzA1IDYuMjE5IDIwLjc4MSA3LjI2NiAzLjQ5OCAxNi4yODQtLjE5MSAyMC4xODctOC4yNS4wMDYtLjAxMS4wMjYtLjAyLjAzMS0uMDMxcy0uMDA0LS4wMjMgMC0uMDMxYy41NTYtMS4xNDMgMS4zNDQtMi42NDQgMS44MTMtMy43MTkgMi4wNzItNC43NDcgMi43NjItOC44MTUgNC4yMTktMTMuNDA2IDMuODctOS43MiA1Ljk5Ni0xOS45MTkgMTEuMzIzLTI2LjI3NCAxLjQ1OS0xLjc0IDMuODM3LTIuNDA5IDYuMzAyLTMuMDdsMy4zMTMtNmMzMy45MzggMTMuMDI3IDcxLjkyNyAxNi41MjIgMTA5Ljg3NSA3LjkwNmExODkuNzcgMTg5Ljc3IDAgMCAwIDI1LjA5NC03LjU2MmwzLjEyNSA1LjYyNWMyLjUwNi44MTUgNS4yNCAxLjIzNiA3LjQ2OSA0LjUzMSAzLjk4NSA2LjgwOSA2LjcxMSAxNC44NjQgMTAuMDMxIDI0LjU5NCAxLjQ1NyA0LjU5MSAyLjE3OCA4LjY1OSA0LjI1IDEzLjQwNi40NzIgMS4wODIgMS4yNTYgMi42MDUgMS44MTMgMy43NSAzLjg5NSA4LjA4NSAxMi45NDIgMTEuNzg3IDIwLjIxOSA4LjI4MSA3LjIxOS0zLjQ3OCA5Ljk4LTEyLjc0IDYuMjE5LTIwLjc4MWwtMS45MDYtMy45MzdjLTIuNDE5LTQuNTgtNS4xNjMtNy42NTQtNy44NDQtMTEuNjU2LTUuNTM3LTguNjYyLTEwLjEzLTE1Ljg1OC0xMi45NjktMjMuMjE5LTEuMTg3LTMuNzk3LjItNi4xNTggMS4xMjUtOC42MjUtLjU1NC0uNjM1LTEuNzM5LTQuMjItMi40MzctNS45MDYgNDAuNDU3LTIzLjg4OCA3MC4yOTktNjIuMDIxIDg0LjMxMy0xMDYuMDYyIDEuODkyLjI5NyA1LjE4Mi44NzkgNi4yNSAxLjA5NCAyLjItMS40NTEgNC4yMjItMy4zNDQgOC4xODgtMy4wMzEgNy44MDggMS4xMjkgMTUuODIzIDQuMDMgMjUuNSA3LjUgNC40OTggMS43MjMgOC4xMjIgMy43MjMgMTMuMTI1IDUuMDYzIDEuMDU3LjI4MyAyLjU3Mi41NDcgMy43ODEuODEzLjA5Ny4wMjQuMTgzLjA3MS4yODEuMDk0LjA2NS4wMTUuMTU2LjAxNy4yMTkuMDMxIDguNjcyIDEuODY3IDE3LjA5NC0yLjg3OSAxOC44NzUtMTAuNjg3cy0zLjc1NC0xNS43MzItMTIuMzc1LTE3LjgxMmMtMS4yNTQtLjI4NS0zLjAzMi0uNzY5LTQuMjUtMS01LjA4OS0uOTY0LTkuMjMxLS43MjYtMTQuMDMxLTEuMTI1LTEwLjIyNS0xLjA3MS0xOC42OTMtMS45NDMtMjYuMjE5LTQuMzEyLTMuMDY4LTEuMTktNS4yNTEtNC44NDEtNi4zMTMtNi4zNDRsLTUuOTA2LTEuNzE5YzMuMDYyLTIyLjE1NCAyLjIzNy00NS4yMTEtMy4wNjItNjguMjgxLTUuMzQ4LTIzLjI4NS0xNC44LTQ0LjU4MS0yNy40MDYtNjMuMzQ0bDUuMTg4LTQuNjU2Yy4yMzctMi42MjQuMDMzLTUuMzc2IDIuNzUtOC4yODEgNS43NTEtNS40MDEgMTMuMDAzLTkuODc5IDIxLjc1LTE1LjI4MSA0LjE1Mi0yLjQ0MyA3Ljk5LTQuMDE3IDEyLjE1Ni03LjA5NC45NDItLjY5NiAyLjIyOS0xLjc5OCAzLjIxOS0yLjU5NCA3LjAxNS01LjU5NiA4LjYzMS0xNS4yNDggMy41OTQtMjEuNTYycy0xNC43OTctNi45MDktMjEuODEyLTEuMzEyYy0uOTk5Ljc5MS0yLjM1NCAxLjgyMy0zLjI1IDIuNTk0LTMuOTI3IDMuMzc4LTYuMzUxIDYuNzE0LTkuNjU2IDEwLjIxOS03LjIxMiA3LjMyNi0xMy4xNzQgMTMuNDM4LTE5LjcxOSAxNy44NDQtMi44MzYgMS42NTEtNi45OSAxLjA4LTguODc1Ljk2OWwtNS41NjIgMy45NjljLTMxLjcxOS0zMy4yNjEtNzQuOTA1LTU0LjUyNS0xMjEuNDA2LTU4LjY1NmwtLjM0NC02LjUzMWMtMS45MDQtMS44MjItNC4yMDMtMy4zNzctNC43ODEtNy4zMTItLjYzNi03Ljg2NC40MjYtMTYuMzI1IDEuNjU2LTI2LjUzMS42NzktNC43NjkgMS44MDctOC43MyAyLTEzLjkwNi4wNDQtMS4xNzctLjAyNi0yLjg4NC0uMDMxLTQuMTU2LS4wMDEtOC45NzQtNi41NDgtMTYuMjUxLTE0LjYyNS0xNi4yNXptLTE4LjMxMiAxMTMuNDM4bC00LjM0NCA3Ni43MTktLjMxMi4xNTZjLS4yOTEgNi44NjMtNS45NCAxMi4zNDQtMTIuODc1IDEyLjM0NGExMi44MiAxMi44MiAwIDAgMS03LjU5NC0yLjQ2OWwtLjEyNS4wNjMtNjIuOTA2LTQ0LjU5NGMxOS4zMzQtMTkuMDExIDQ0LjA2My0zMy4wNiA3Mi41NjItMzkuNTMxIDUuMjA2LTEuMTgyIDEwLjQxLTIuMDU5IDE1LjU5NC0yLjY4N3ptMzYuNjU2IDBjMzMuMjczIDQuMDkyIDY0LjA0NSAxOS4xNTkgODcuNjI1IDQyLjI1bC02Mi41IDQ0LjMxMy0uMjE5LS4wOTRhMTIuOTEgMTIuOTEgMCAwIDEtMTcuNjg3LTIuMzc1Yy0xLjc3MS0yLjIyMS0yLjcwMS00LjgzMi0yLjgxMi03LjQ2OWwtLjA2Mi0uMDMxek0yMzIuMTI2IDI4My42Mmw1Ny40MzcgNTEuMzc1LS4wNjIuMzEzYTEyLjg4IDEyLjg4IDAgMCAxIDEuNjI1IDE3Ljc1IDEyLjg5IDEyLjg5IDAgMCAxLTYuNjg3IDQuNDA2bC0uMDYyLjI1LTczLjYyNSAyMS4yNWMtMy43NDctMzQuMjY1IDQuMzI5LTY3LjU3NCAyMS4zNzUtOTUuMzQ0em0yNTguMTU2LjAzMWM4LjUzNCAxMy44MzMgMTQuOTk3IDI5LjI4MiAxOC44NDQgNDYuMDMxIDMuODAxIDE2LjU0OCA0Ljc1NSAzMy4wNjcgMy4xODggNDkuMDMxbC03NC0yMS4zMTItLjA2Mi0uMzEyYy02LjYyNy0xLjgxMS0xMC42OTktOC41NTItOS4xNTYtMTUuMzEyLjYzMi0yLjc3IDIuMTAyLTUuMTEzIDQuMDk0LTYuODQ0bC0uMDMxLS4xNTYgNTcuMTI1LTUxLjEyNXptLTE0MC42NTYgNTUuMzEzaDIzLjUzMWwxNC42MjUgMTguMjgxLTUuMjUgMjIuODEzLTIxLjEyNSAxMC4xNTYtMjEuMTg3LTEwLjE4Ny01LjI1LTIyLjgxMnptNzUuNDM4IDYyLjU2M2ExMi44MyAxMi44MyAwIDAgMSAyLjk2OS4yMTlsLjEyNS0uMTU2IDc2LjE1NiAxMi44NzVjLTExLjE0NiAzMS4zMTMtMzIuNDczIDU4LjQ0LTYwLjk2OSA3Ni41OTRsLTI5LjU2Mi03MS40MDYuMDk0LS4xMjVjLTIuNzE2LTYuMzEuMDAyLTEzLjcxIDYuMjUtMTYuNzE5IDEuNi0uNzcgMy4yNzEtMS4xOTcgNC45MzgtMS4yODF6bS0xMjcuOTA2LjMxM2ExMi45IDEyLjkgMCAwIDEgMTIuMzc1IDEwLjAzMSAxMi43NyAxMi43NyAwIDAgMS0uNzE5IDcuOTM4bC4yMTkuMjgxLTI5LjI1IDcwLjY4OGMtMjcuMzQ3LTE3LjU0OS00OS4xMjktNDMuODI0LTYwLjc4MS03Ni4wNjJsNzUuNS0xMi44MTIuMTI1LjE1NmMuODQ1LS4xNTUgMS43MDEtLjIzIDIuNTMxLS4yMTl6bTYzLjc4MSAzMC45NjljMi4wMjQtLjA3NCA0LjA3OS4zNDEgNi4wMzEgMS4yODEgMi41NiAxLjIzMyA0LjUzNyAzLjE3MyA1Ljc4MSA1LjVoLjI4MWwzNy4yMTkgNjcuMjVjLTQuODMgMS42MTktOS43OTYgMy4wMDMtMTQuODc1IDQuMTU2LTI4LjQ2NSA2LjQ2My01Ni44MzkgNC41MDUtODIuNTMxLTQuMjVsMzcuMTI1LTY3LjEyNWguMDYzYTEyLjkxIDEyLjkxIDAgMCAxIDEwLjkwNi02LjgxMnoiIHN0cm9rZT0ibm9uZSIgc3Ryb2tlLXdpZHRoPSIuMjUiLz4mI3hhOzwvc3ZnPg==;fontColor=default;" vertex="1" parent="1">
          <mxGeometry x="480" y="481" width="108.94" height="103.5" as="geometry" />
        </mxCell>
        <mxCell id="b_Wbd-ZXqIB6Z8tAtHYO-15" style="edgeStyle=orthogonalEdgeStyle;rounded=0;orthogonalLoop=1;jettySize=auto;html=1;entryX=-0.026;entryY=0.471;entryDx=0;entryDy=0;entryPerimeter=0;" edge="1" parent="1" source="b_Wbd-ZXqIB6Z8tAtHYO-5" target="b_Wbd-ZXqIB6Z8tAtHYO-2">
          <mxGeometry relative="1" as="geometry" />
        </mxCell>
        <mxCell id="b_Wbd-ZXqIB6Z8tAtHYO-5" value="" style="shape=image;verticalLabelPosition=bottom;labelBackgroundColor=default;verticalAlign=top;aspect=fixed;imageAspect=0;image=data:image/png,iVBORw0KGgoAAAANSUhEUgAAAQkAAAEaCAYAAAACKqJRAAAgAElEQVR4nOy9e5BkWX3f+fmdc+7Nd72ruvo574GBYUDADAwSEgwyXsmSViA/kIxka2Xtrte7xmys8Ho35F2vHbFrxTpsybJwrCNsycIWIISEBEh4AI2EBAMSw/CYGWY0w7x6unu6u7rrXZl57/n99o+bVf2orO6qrKys6u76RldUdFbee27evOd7fuf3+P7kV37lV4wuGBsb6/byGs6dO3fFv+8fv3/8/vHXx/Huiu/cxz72ccNjnyT2sY99XBFhI7PkWjKH9o/fP37/+J07ft+S2Mc+9nFF7JPEPvaxjysi7PYF7ONagYDIbl/EPnYB+yRxo0EcIg7xKTiPiAcfkFDChRLiy0hS4sA0qAt451EzvE+QtcfFcM7AFAWctgFB8xU0a6FZk7KmxHYLjRmmESxiGlGN7FPNtYV9krjO4ZISPq2SVkcI5Qa+VCOUKtTqYyAe9Q4RARNMAPGICE4cZqspNIYVvy5AQFane+eXqWIxYk4oTSsiBhrRmBPbS2StJfKVRbLmIj4xLFtBs+bA7sU+esM+SVw3EBAHPuCSGiM3HaM0NImv1ElKDUJIMFXUtPh90ZHWObz4j2FmxEve0QV2KWeswTkKrvGd/wd8KOFLNUpDgjiPc4UrrL2yDO1FspVzxMXTxNYixAys65n3sUvYJ4lrGeLxpTpSbuDKQ6S1USSpYuJxLkFEUFMwI8/aVzyVdSa9AGa6Nk+v5Ia4eC4759ZIw21wjJlhMUdj530hwaXj+PoYNn4zaI61V2gvn6cWjtNeOk+2PA92FcLax44ibBRPvZbiuDfa8a4ySgwjVCaOUarVcATaeY50ZuflE30Vl/9fBLxEvDeCdzjnSBMPAokr3lxyQjebQTFiDjkg5sjxxGhkeSTGSGZCzAXDXeKDuJR0DF1lDBy4FCmnpKUhpidvJ5ITF+fI50+Szb90ydbkWv7+rrXj9y2JPQ5D8KUarjRE2pjE1cZwSRlxaccRaCgRcbLmNxBTRMAFCB5K3pE4I0k8wQtJYgTn8InHmeJEUCmsASeX+hmucGEXbVEuvJzHiANyNQwhZkpbI3n0tLJIFo28DW2NaO5QVRQpnKmrQ4uQxxwAXx3FV8cI43dg+Rz5/Bni8jnc3AIas77d531sjH2S2KMQH/C1CdLhI4TqOC4EcjWk41C0ziQyK6wGBEop1EqOauoolzwhOIIvJp9ZsYqv+gMuoPh/x4NwYb5vxi3Q5T2+44tIVk+YeCokAKh6wDAFNcij0coyFlvQbCorTUHNLiEM62w1XPAQxgmVEUSEMPEKls88y+Lp7xD3nZ87in2S2CMQESSUSatD1CaOUpu8GZfUEAFVJe94F80MZ0oIkHihXIFKOVBPBBc83gmyjgj2BtYIyhWklCRQLQeG64qqEaPRaimLbWV5WckyI1fQ1Zw/MTCHGaT1MUpDkwwfvZvlc8dZOvM8rcWzaNbatc93vWKfJPYAQrlB/cBt1CaO4csNPII6t+ZXMAOxSFoWRsqBatmTpLJmJThXmOvXIgwQcXgP3kOaQjVGbARihHZbWVyOzLeUdtOwi60MjUgoUZu6jerkLcTl8yyceYHF08/s6me63rBPErsAA1xISaujDB28k3T0MGm5QsxzzCBiECMhQEiEkarQqJRJU8G5Tl7DdYzVLUvwUEo99VpgSpVm05hdyVlcKHwbhYUhiBREE2rjTAwdYOjQnejCKVrnX8Cy5n50ZJvYJ4kBQ5IKaWOa6aMHSOojIAGwNYIQi5QqwmjVU00dadnhneviS7hxICJ476nVoFJxZENKq6UstJT5pUiWuc77IMacUKqj6W2ko8dozb9Mdv4FdOX8Ln+Kaxf7JDEIiCA+JRk5RnnyVlxSLkiBwmQGSIJQr8DEUEqlHPasX2G34ZyjlDpKKTTqxoERZW4pY2a+2I4orG1JzCWUxo6Rjh0hnz1J68xTaGuJzXll97GKfT2JHTzegFJtlNqBW6iOHSVUhgCIeY6q4cWoVh2NijBUDSSJw/l9ctgsRIQQPGNDwlBNWWkac8s5S0tGK7ciwUuLrUYyfAgpD7N87iUWTz7F2Ng4VyKLvfD87JXj9y2JHYJPygwduZvhg3eCOEyKyMRqQlO9JkyOeGqlUEQ2Oj/72DpEHElwhJrRqHl01Dgz1+bsrKKshoANn1apH7idkYO3sXLmeZpnnkQsXn2AGxz7JNFnuLRGMnKI6dsPkZSG1uL8qkoQaNSFsXqgWg03tJ9hJ1CQrOATODBeYqQRmV3ImV8yVtqr+RdCNKE0dRthZJps5lny+ZP7hWZXwD5J9AmGUBq/hcr4bcQ0QVTWCEJMGRlyTA0F0rTIatz3OewsRAq/xeSYZ2xYmV+InJ2Ll2xDXKhSPXAXOnaMlZefIps/uduXvSexTxLbhDiPr41TnrwdX50o9BK0sBy8QLUiTA4l1Gphf0sxYIg4vIB3jvFRx1DVcWYuZ35JySIgjiiCpEOUDr+epP4SzXPPoM2F3b70PYV9ktgGXKlRkEP9ICayVqwUo1KtCtNDnmo14P21m+x0vUCkCCdPJ46RhnJ+MXJ+LmI4oKh1SUYPQX2MfOY5ZG5+LfX9Rsc+SfQA8YFk9BjJgVeSJhVizBEK6yENMDXmGW8khOCveq59DBbee2pVT6XsGK56Ts5khb/COdQEHyqkh1/DgcoYM09/hWxl7obXt9gniS1BKA1NMHT41ZQnDoM5YiySoByF3+HAUCAtOZzbJ4i9DOc89ZrjplSYW8g5M5sTzRcJWXlO2jjA1N0PsHTyL5g/9dQNXROyryexyePNoDR+jPKh12Aqa6uLaiQkwrHxQL2e7ojPoUi66jhB9/0afYOIUEoDk2OekXrg+Ok2SxfVh4S0xuitb6A+dRMrxx/FsuW1Y6+153c7x+9bEpuAS+uUpu4gHTmEaiHCsmo9jDc8UyOBpOR3hiA04kVIxFADNSMz2Q+f9hEiQloKHDkAswuRM+dzohVEoTESqmPUbv9uWqeeJJt7iTVprRsE+yRxFfj6JJXDr8GkTLGYF6KwiVemJxzDtVKh6bgDjkmxyHAQSl5w4jGMqMpybizGiPP7W5p+Ik0Dk6OORtVx4kzGYqsTLjVDJKV26B6atXGaJ76125c6UOyTxEZwCaXxm0gn7ygUpO2C9VCrCQdHUsrlsHOmv0ZGU0d6UWREKCyIukRizFnRrVkUZoZ2ti1qhhhEkULN2hTwqEBuheIVVhCiw0OXdPGYd5ShIvhESFwoStdRQAg+4Dukuqp45fc4sYlzlMvC0WnH6dmMuflI7GRtRjOSoUOEpM5y/mWac6dviArTfZLoAp9WqR5+LUn9QKEZ3SEI75QDo56RRtIJa+4MQRhQ9ULqu5eFiwiVIKxkEa5CEjFGDIgWCw1KU3IV1IrPpZ3zOwrRXPEOKHQuV+Xp4upFXQ6fdH4X74kGFosCbjVFYg6meBEEJXiH1xwPpC4pSrz34LZJREgSx8HxlOFKzkszGe14QatTqsNM3f0OZp99hPkTT173RLFPEpdASGsjjN/2ZvzQVKE0TSe06WF6MjBcS3bcHyBA8Bv7OJxzpMETsozIqvCtrf1oVCKQqRakYAJaVEh6fykBXPxJ+vGpVif92rnEd8T5HVFBs8LHElkhFU/JQxCH8x5h71gaRXm6UK8HjgXHqbNtFptWNDfCEBxjN7+eUKox++I3r+voxz5JrEGojB9l8s4340J5LaXaTBmuOQ6MBUqpH4jD0ICohfm/Ebz3OJpkMaJmtGNEtSAGtWJlt877RIpT7YXp57zvbGEcbVXyvPC9IEZwSkkKAnRXIMlBQsRRKQtHp0ucnsuYmVXMCqEbE8fQwbtI62Oce+YrtJdmd/tydwT7JAGAUJu8hbHb70d8R2gWwJThunBwPCFNBnur2lGJUfBdfAHWIYJWHjkf24X1IB5xRfMbuDY6Qa8S7upOpmWOlhoSWyTeU3Ue7zu1LrsY+i22H55DY0LJZ5w6F9E1ooDS8DSTr/w+Tn/7j8iuQ6LY15MQR2n8FspTr+jIoRUE4THGRxzjwwnJgAkCIDMhN+u6+meqnF3JmdVARHBerglSuBqcrDYldrSjkmUZ3juCg4r3eOd2dTsizjE6lJB4OHE+kmUFUWBGqA5z8LX/Fc0T3ySfP8W5czNXPNeeef43cfwNbUmIONKJ26kefAV5rlzIf4hMjyeMjSR9D21eSIySNb+AmF3iwBNAgcWsKC8XWeu6STtGXlzKWLKi8e9G3bKudTjnwBVxkrZBq53jxag5R5qmF94zYHjvGB4qUSlFnj/VZrmtxXWYIS6hcdN3sfjiN7BzM9dNY+QblyTEk07dQXnslg5BFEmUiVMOjqc0an5Hch9MlZIzKmIIhonQUqGpsejlaUZUI1dlNsuZbztqQfBmtE2YbUfa4q/Yfu96hLjCAbqQR1xsUfGOUvDILul/Jqnj6FTgpZmM5Yt8lrk6qodew3A7snDyyeuiSOyGJAlxnvL03ZQmb0LzInvODFJv3HKwTJL2P6PRKHQlxoJRTvwlq0wNWM4iM+2cdq60TGnFwoKYjzDfsXIK60NuOIK4BN6Tq7IQjWXNKTmopenAiaLI0vQcO+g4fqrFwsqFrYfiGL/9PkQcc8e/dc0XiN1wJCEuMHrTa0lGj1xCECWvHJpKSUv9Les2wFmk4qCRCElI1r/HlMQ5ltttlk3wznPJ1vuGZoX1uNjhuZRHWtqk7DyVJAzUZ+GcwwGHp1JOnM2YWzRcZ/+nec7wsXvAlLnjjw3smnYCNxRJmMHoTa+lcfiVl7wWnHHsQEqp3N8thqkSRBlJHIm/qM9mFyxkGU0T/B5MLtrL8N4TVVnMlGbMqPicShIGmrKeBMfhyZTUZZxdsIt6mjqGb34t4gOzz3+Da1Wl+4YhCRHP8JFXMXz0NWsy9qpGJYFj00WKdb9ggGik5o1G4glXeWDzaJxrFYk6+9g6Cidncd+Xo9KyNvUQBhYNKYR44cAkRMk4P6dr20LBM3rTd6F5m4UTT67l31xLuDGeShFqB25l5NgFggBIUuPgVKE72U+kKOOpMLQpgoicWM5YVNvfVfQDzpGpMNfKWciyTtOjwazg3nmmxxLGh90lZBBjzujR11GbunUg19Fv3BB6Eq4ySv3YvVgn0UhV8R6OTibUK0nfknQsRqpBGE7kqiuYmZHlkZeXM85Fwe1bEX3Dqs+ipUbezhhODNfJs9hpJMFzYAxiZsyuFK+JCITA2G1vohwMXTl/bc2fK77zOoCvjFI79l0Qiu2EGZSCcNNkoFHtj0iMquJMGUmEoU0QhMbIchY5vpRxJrPrJp6+1+A68vlz7chCq002IKsiBM/h6TKjNbnEonDeU7v5PkJt4poKeFzXJCFJlerB14Kvrj0cZsrURCFQ2w+oKgFlIhWqibvq9iLGyNmVnCfn28zmtierIK8nOOcw52gpzLXbZNlg8ha8Fw5NJtTLF5aAIt3fU5m+m1CuDeQ6+oHr9gkV5ylN3QnVGqup1qLK9IRnuNqfUJmZUXUwXnIEv3FuxerWYmalzbMLbY43YxE+c27PWBGGYOKIxpqWBBrX/3Q0KaIVBU7Xih3knEMlMNfOWWy3yAdgVTjvODSZUgoXOreJCFKqMXbLvUiXcPhexHUb3UjGbiYZPUynThlTZXLUMTGcbntvutrodyQ4qkkRK79S6HSpnXFqKWdBAefWYum7CYOOj0aQ9grJwhnKZ1/Ez56hMnuC6vwp/OJ5XGzTKUbHnCOvjdOqT7I4eph87CDtyWO0R6bB+SKfQwRUkT3oxRcA71lsKy1X+CpCsnMTVUQolzw3TweeOZWv1XoY0Ji6iZg3Of/MV/Z8xOM6JAmhMn6E6tQriRcRxGhNGBtJ+uO80shIgFpyBetBlbYaM82MmZaSi9v1CKcakDVJFmcon3uJ2ulnKB9/itqZ5/ErZwnN5U7ZtgNcR3fiAqEpAnlOQ41RcxCNvDqClutoWqY9MU1z/GZaE0dpThwlGx4nVhpYSBHnkD2yEfe+qAk5385oRCNJw445NUWEJA0cHoMXzuSYFfczqjJy+A7ai+dYevnpPU0U1x1JhEqDsWPfReysfgDlEkyPJ4Q+dOwWjYwmQjlcuWZgsZ1xaqVIH5Zd3FYoxXYnXZxh8rEvUH/uK5Refo5kZR5nEWedYjPoWAMbPxJmCtEjCAkGzkia89CcBwxOP4PyRcwHok+IjTGao4dZvvUeFm9/I0sTxyAtI3tFSNYFFmMkaSqNUrpjHd1FHLVa4EBmnDyna7yb58bIsVfTXpihvXTlqtHdxHVGEsLw4btIGsOYGqpGGoyjEylpaXtm5WrD35FUqGxQOm6mqMJ8O+el5Ugmu7O1UCt8Cq65SOP004x847OMPPkl0uY8eH9p0tYWzBsvDi2DtZSYF865i04EdJxcGvEa4dwJKmdfZPTbf4qmKYuH7mD2ru9j7s77yEcOoEm50MDoy6fuDeY8KzGirSbDaQnZQDJwu/DOMT6SsNxsMrvUWThESMpDjN7yBk4/8fk9WwwmH/7wh7vagNdSHHcVYeQIlSOvAXWFJqVXpscCY0PbL/l2powEoxQ2VqfKY+T0Ss7pZo45vysPf0QoLc0w+vXPMfTkQ1Rffo4Qswv+gn6MEcGiIJqz+U9phYSec+SVGksHbmf+lfczd9dbyUcPgOmukkWMkdQJw2mC38HOa1keeeFUi6XWBXJ0Iqyc/Q7t099e08vcS/PvurEkfGWY0uG7QTvFP6Y0asJIfXsEoWYEjPEU0g280aqKmXFisc1MVkRWBvnAW+c60+YcU498mokvfZTSygL4UBBDn/fb3gPeyKMntrWjkH01CLhCHCddWSJ99muMPv1ntD//q5x+y19l5g0/RN4YvUQ7Y5Dw3pOpMtduMUQJ53amt0nwwtRowosvZ+RaODLVjPL4zejKOfL5U30fc7u4LkhCfEJp4jYcgVXhmFIJpofTrvJvW4HHGE2EdIPVxcxo5ZFTyzmzEWTA24toUFo6z8g3/5Cxxz9L5fR3cGYwgPCa82BBiovYKsRBSElbKxx66NcZe+S/MHvPO5i55wFaB27aFT1O5xztaMy12zRCIEn6L5kn4qhVYHpUOT5zwVmpBqXxW4nL57F8b4nqXhck4auT+KEDa3X73kWOTaWEZJuhTlVGE0j9xg9KHiPHl3IWch14sxx1gcZzX+Xw7/8y1bPPXUjtHlARiAM0SHHbtcfIhQgOozr3MpUv/CcmHvk9Tjzwt5l54w/vilXhO3oV83nOsMiOSBc65xgZTlhutTm3YIjr5E9Ux0jHbqF1+tt9H3M7uOZJQkKJ8uQdSKcNjKhyYCJQKfVek7GaeDWaGOUNfBCqSjOPPL/ULprkDJAg1IzyuZeY+MonGPvmZ0iylWJZ3wU4AQ2OPAeXxx53NtL5J6SL8xz7xC8x+s0vcOqtf53FW18/cPJ1zhFVOd/OGDElhND3rYdzjsmxwEqrzcqaViaUJ24lXzoLV/EpDBLXPEmk43cQqkMdCXqo1xzD22zcaxoZClDx3cOcZsZKnnN8KbISB9uXU11C/emHOfyZD1I9/2LhC9jlDubOGeYNMEyLvhTbOBkOo/Hco1ROPMmZN72bl9/2E5CkA7UqnHOoKvPtSAMhTfrfyjEJjsmRwAtnMuiIMCuOytSduFPP75leHtc0SfjqOOnk0TWCQJWJoWS1lqtn1APUgttwBWvlkZeWlaVoAyMINcOtLHDgq59m+kv/iZC1+u6Q3A5cKBKUTLsrfG8NghNI2yscfujXqJ56mhPv/BmaUzdfUbin31i1KJayHCeQbHP72u389ZpndClyfnl1l2i42gjV8WMsnnqavSBUs3eesi2icFbegsSOXJgqk+OearV3dSkDSqIMhY3FSprtnOcX2izpINWahWThLMd+/19w8I9/jZC39xRBQEfx2zssBKL06cEWgZAw/PSXufkj/5TG89/EBvy5nXO0Ec6328Qs6/v5Q/BMjicEp2v1HapC4+Ar8Ump7+P1gmtWT2Ipc1RL45gIqkqlDBNDAdej6W2qJA6GQ/dSbzMjzwuBmGUGk0FZ1IgYyewJbv7E/8PQiSc65LD7tR/d4DBcMHICsR279Rju8bxC7cwL3PLr/4gXf+QfMHv328GHgd2FImXbsZDn1MXh+5xwVS4FDoxFXjoTMQr/RLkxxuTN99A6+3RXP/S+nsRVIOIYPnwXPi3CfEkQDgxtry5DgIY3wgYhTDPj5EpelHf3PMrWoGY0nv86t3345zsE4dmrBHExxCsW+lwh6hxJ1ubI7/0y41/53V2pPs1UWMrytc7s/cRQPTBUvaA/oWqUJ24nlOt9H2uruCZJwjemqYwf6zTIhUrJqNV8z9oMqkrNQzl0P4epcnKpxZmWDs4HgVA98Rcc/dQvUJs9vjXnZCcte93PgOCcQ5wrSs77CRHS9jJHP/VBxh/+bVYbDQwMruhfmuWx70ThnTDa8ARZ/UyGS0uEsVvZ7YXhmiMJCSXSydvX0ledRcaHk20lTZWdUt+gorMQicl4uW3bTszaDFabBQ8/+UVu/fjPU5k/u7m8hw4RRBPycgWt1aExhNbqxFKZaDIwohAzJBTWRP9PLjgHR//g3zDxhY9C1u7/GFeAOc98jOR5f+ssnHPUqp5axa0xX4w55ZFpfHW4r2NtFddcdCPUJ0krw0QtHD0jI556pbcO1Ks9MUZLGwvWrkTjdFt3pJtX12syo378Wxz91P9Lqbm46QIsFdDGKBw4hNWHwDsQAxMsa2OLC/DC8/hsZSDJVg5QV3Qj63uSughejUMP/Tr52CHm7v7egelXCKAmzMfIaJ7jtxtKuwjeC5Njnrnj2drzpuZJGoeIK3O71uTn2rIkfEo6cpQ8xqIln1emt+GsxIpIxkZhtSxGTi61adtgMv9MhPL5kxx68N+SNhc3bUFEHHrkZuS2VxBGhkmC4DoRBidGSBOSsTG461XEoREGpVzgEgdO0J0gJRGS9gqHf//fUH7pyYH6KIrQqLCYxwvh9z5AxFEtByaH/IXtjPP44WlcUu7bOFvFNUUSoTKMlEYQKRw8jbrg096j8ilGxXefixqVEwstFgYkfWCAXzzP0d/5Z9RffnrTj7yKYBNTuKlD+KuY95KU4dixgdR1AEUNiVttf7wTAzhK82e49cP/B8mZ5weeUdDOI1mfw6IijtGhQOpWDQfDhSrJ6LG+jrMVXEMkIYTxW3Ad864UYKzaWxisuPe6Jn1/+VZCNXKulXE2t4HoUKoZrrXM4c/9fwydeLKowdjk6mvew9TkptImnDOoVNHRUdgBD31XiGCyYzSBiKN0/mUOfu4/4pYXdmiU9XDOgQ/M55HYZ/9EmgpDNbfmdwMhHbkJl1T7Os5mETaKp+52HsTlx5caUzSqE5gVvohazfXcls9UaQQj2ShhKhpnmpFBlheNP/45Rp74Y/BbW+Wt2igshE1CLKCNEeKp0wOptBQPamFH1ahEHCPf/iJLN72Kme/+awNVvjIc8+2MIbl6K4XNQkRo1D0zi6u2keJLVdphmPmXjwODnX/XhCUhzjF06M41J5GzyFijN8VrVSV1RnWDugxVZaaZszKgjEpDSOZPM/GnHyHELXrqzQiJ35JIinNKLNchDK5SVFCsX1mY3SBC0DYH/+jXSU8+jQ06dRshz2Pf1Ledc1TLvpM3UbwW84zqxE34tNKXMbZ0PQMfsQeE6jC18SPEjsOy3nCU094eBAGqrohLd8NcK+dsKw6sH4ZrLXP09/4l5fnTPfUCjWbELRrz4gYruioJ2E4H0sSRLs5z9Hd/Cbc4O1D/RDRYVuurmG0InvGhouhr9bOUqiOk9StbADuBa4IkKsPTSAhFB3CvTDYC3vf20CXSvbrTVGnnOSdW4kCUpYxigo9+60FGn/1KbyFWESzaljb8qg6/tDBQyXtnQnQdte2dhPc0XvwWY994sOgRMiA458ii0s5yrI++nno1UK+uZVeB95RHDvft/JvFnicJF1Kq40dQLSIaaQqlUu/1GY1A16QoNeNcM6fV7yzBja7FjMr5E0x89ZNb9kNcDFlagPbK5sdVhXPnisjDABESxWTniUlEGP/qH5CcG6wMnHjPQtS+ZmKK84xU3JofTkSojR3GbeN56QV7niRCqUFaHV/7/0jV96xAXXZGOXQvzmmpcT4boBkuntHH/pjy2Re3ldwkGrGZc5s/x/wcMjfHwFN9ozAI40XMqJx+nvFHfh8d8GSKJixlsa/WRLXqKXeMZjPDlWtUxo/27fybwZ4nifqB23BpUTJbClAvb30rsNpxq7ZBKz6NkdlmpGlX7qXRLxiCW5ll5LH/grftmcVOFXfmFPHMGaLFteYvlyOi5ItzcOI7CDowibtVeA+4sNYwaccggjNj/JFPkZ58ZqBOTO8cLVXUrG9OzOCFWtWt+Tu8C9QO3NGT/6pX7GmScKFEaeIwWOG8KZccaeq27FQ0VUoiJBtYIK2ozLQHt4dVgYmv/A7lmePbn6wiuDyH556GF15AV5ZQFdQu/OTNFTh+HHnq28hKc+BbjTWEAY3rHMniHFMPf4yBmC+XQFjJ+zemc8JQ9cLzrhqpjE3h0sE1HN7TehLJ8GGq1VHyPOtkWPre9A4Fqol03aaoRs40c/IBaUSoGcnCDFN/9rvFiP1Y6UTwpnD6JHHmZUhSYrmGeYdvriArKzi7KO9jwFbE2mXq4JKnnfOMPvGnzNz3ozSnbx1ceT/QzHMqVxAu2gqcc9QqgVKItGNHh8eltH2d+XPPb3jcjaEnIQ7fOFA4bYAkwHClt5vuzUile97DcqbMZYOcN8boU39C2pztr7pUp/mOV8U1mySzM6QzZ/BLi3gdbGLYRlAvRYboICCCX16k8dSXsDjYSIeq0cr7l64tTmgMXfj+Yp5THZlGBuRz2bMkIUmZUmOCGCMYDFddTx2gVZVakK5iMjEqC9CSyjMAACAASURBVJmSDdD89q0l6k89jOzYZJEL3bou/tkDcFKomQ9sPJShJ/4M314e2JgAEgLLUYtntw9wzjFcCUCxYJopaXUUXxpMmvaeJQlfHoZO4rB3Sq3WQ/p15wy1IF39GEXHpsE2r03PHqd65ll2W0hkN+CtUz8yIIhB5fQzpC8/O3Alq6hC7KOXtlp2VNMLWhPmU9LKYHQm9iZJiCNURlEKS8AHodaDgImpUk3oqhVhqiy1IssDFLQ156mf+AvSpdmBjLfXEJ0RB+k07ShZjX77TzvhlcHBeV+UkvfNmvBUqqxFTXySUB460JdzX3XsgYyyRYjzhNoY0tGJKCWCbJEkDBCM0gamtqpyPh90KFBoPPNlZLeiC7sN8WiSDnhQo/HM17ABVoiujayG9TE5r5F6fMcSMzOqk0dwYecVtfckSfikjIU6ZoWRWE8dveRPeSl6eXbDch5ZyG1H2sxvBDd/lsqZZ29ckgDQ/pZVXxXiqb78DOUzLwx8y6FA3scQbJK6C2F8M0K5wdCRV/ft/BthT5JEqTGB61QpOoFSypZXfFOl5KRrCnaMkbm2ggwm7Alg4qmdfLIo5NpjPTMGCjdgxUQRXFRGnnt04A7cCLRU+5aBmYSik9gqTI3ho3dRnbh5R+UVd11PoshJv/C6uUD12N04F1BVxBulIBea4W4aRuK6uwdzNeaywVoRAKNP/slAx9uL6Fcm4pYgUHrpSYj5QAnae08WM6L1pwZWRCinjoWmrc0ZU2Hy9vtpjx+gPfMcpkXotZ/zd1eEcF1aJh2/hWT4IObLiEVoLaExw1WG8ZVhVItwTzmRq8qydYMAqaxPw1ZVVnJlsDENoL1E6cSTeyYceUNBPOUzxwlLs+SNsYFuOnJztPNsQ6HlrcA5OhIJF4hWRCAEKtN3kYwcw1rz5M05yvo8rYUzWNz+9m7gJCEuMHH7W4rKTmStWl7KQwSKleZi86ycGM5v/WsNGGGDVWM5V/JV+cUBwBBKi+cpzZ++oUnCYoS4C82NnRCWz+Gai9AYrB6DiNCKSjnGbXdHF3GUSw7ncswufbZjjEhSxpWq+KFppsZvY+Hktzn/3KPbLpsf+Oa4fuA26lM3E60j0tHpF2FalNlebI5aVBrVdMtq2KpKNfFd02JVleVcByYqA0XyiyycJ7QWBlqYs9cg3hfe5MGPjM9zwuLswLc7zjmanaKvfiBNHd5dUKy6HNbxgYg4GtN3UKptnxQH+sSKD9Snb0c3GTtOHCRJbz7pdAO5tLYaTR18KpNbOsONmEB1CXLDa/+b7m4GEtuEpXO70rvC42n3SSxXnFAvb+4zuFCiMn5k22MOlCR8qY4r1Tcl82VW7MHSZKMg5gbHUSxWyQbdtpbagxOWuXBRRmlhC5oP1ym8GH6DUvYdhyqysnlxnr4OTSGY2w9BGgFq5bCpOSEIpdrotsccKEmEpLQlB06SWE+NdxKxrrkIGiNLOTtYN9EdToTK4nkGmJG8JxF156T1rwZnkGTLPUTJ+jC2c7Q168tWR6TQdw2b0Ck1DOlDstVA71ixcdj8kLUexW4TJ0i3snBgKe5GP2pwW1XCho5aDgPuirtzUC/YLqXmiNmGndp2GgZEfN+2OuXUIbK5x0LC9jNcB6on4WtDm74wQwmlZMu5DBYjIobI+sDNSqa0BhjVuBJMCueTqUFeTB7JrDBLo+BjxHNpokdE0NUWfkGBWHwYBxLYPTGZTUKMoinQBve/iHZp0b/UPJJD9Cnk4DXiOxqZuTii86A5wUWi98XfxJAOq4rInslsFRHUlGjWl14nPgmkvk0euaqby3nfdS5uZf7u2YbBzhkhbN04FZGN/RFRd31RNpEiMzk6LBNoS9GbImrR93HtAjuP0+pDYMUrPhoIxBUQn2BimAdLDUsi4gS365+yO5xRkNplk9dEUPNoWyEmOCgEeUwIUS+QXyfsF4AQIyoOosO3i6CRmsPQgkhDjtjeIU9TiP3yhVnRP4WBtFfaoySx6rQMG0z2K8EJndXkUmiMrOQ6sIrPi2FmqEGeC9L00HQQlXBxOHD1ujZaGS573btO2XCnh55mDjOHJZCXMlwqiGPPrKZQyPZJNHCdHqYRQIl5gqjg1a8nuCtc/9rkF8BWyVEgB81TDENzJSaKOC2qindh2yGdnzaRvrTWEaikgcXmYL7bPRu0d7iuQjFXg1j3XW80Ix+gfNoq1GDk8S/R+MY3cEsJ0nR4DN/nfAGH4QUkF2TZYwuCtvYOQQCQFfpYESPPPNZ22EoJ3zYSpa8WkEPxGC46fMshywmNrz9C5exxbBeclyrSUQzvj+s2JH5gwbI9akkoQaQnxg/Bk3RpYRcNsgGG31SNZHmBQ5/890x+9TM4c51EqqtMhM2s/Fe4Lw4rzPIcWPTEYFDPd30booBIJGoCmS98DNbxuWx20l5+bzbxfBT3o3jf6FNfpfqL/zMvvPcDzL/iDcgAmkGvXYdza60Atz+mEFzEiaK284S3J0kCwHvbsBXfFaERM7/uAcpiJ+ttAPSr4qg98zUOPvghGt95Aifrr+fSAzqZp4XbDk0qUK4iaz0+DcsVaTeR1vIFs1rkqgVLkgs267CaERNZ0yMYJEwEjYKtpDiNhWjv1aaKFtkFHb224rUkvXBY1r6oOnCTUn3eU2oucdNv/AIvv/XHOPO2d2NJqev2dCdggb49f+Kls83qy+muiD1LEr3CmXW9cVEceWdu7STUYPQrn+HYx34Zp7Gz9dlgUFPIc2KphB25hfzuNxNuvgMmp9GhUShV1o7UdhM/dx5mTtF65kn8E1+F579DaC9BSDZcjR2gBFg2LMmJ1cETheUgs4XG5ZXX7iJFnywjhhSmb0JvfyXxpleQjE3gGyOdSWawskx7bpZ46iVKTzyCnnkRN3e+yINwbuPJ6BzJ8jKHP/0fqZ58nud+/P3IgIRwVAWNOc5tbzyzoi5pUHKhe5Ykwqq3Z4twIuueD1MtTL3eTrlpWKvJ9B//NtOf+wh+o7JkM1TAhkawO1+LvuaNuFtfBZMHKSXpxtdXqcLwGBy7Dfdd303MfhJmztD+zmO4r/85PPkobuEcznQdYbjOiqztgIoRSxE/oB4YMQdb9IW/pBt7d2p31Dls9CB2x6vQe96Iv+kV2Pg0Lk0J0l3rO+n8mP1tZH6W+NJz6JPfQJ56BJ79C3xzpSthiAgShPFHPw95xokf+mnak4d3PDQeVWlFJUlL206s8t4TvCePO/89DlRPohRTNqvvKyGw1SltsGHhVhZzbEeF5YXDv/9rjP3pJ4tJ2e06YiTW68S3/Qjue/8KMjxKSNItR1wECuXw6UPo1DT2hu+FxTn0T/4L9rmP4efnoEtDZQfQFrTticNxxy2KXItIjruCw1hjRA8dwf7Se3Cvux+p1wkh2dQ9WT2niMDwKG54FHvla9GVd8PLx8k+85u4P/tjvGr378MnjD7xMNJe4IW/9Y/RSn1ntx5r4ex+jKE4rr5tizF2nYt7Xk/ianDOFY62Hqjdu/UaEsbOdbQ2gOYKhz//USYf+gQucVz+xSlgIcXuvR9+8CcIR27uWyjWOQelEpSm0B/+CfTe7yV++iPwyBeQ5vI656+zIgchX/BoNeKS/k8KRbDcocuONO9uPagIjEyhb/0B+L4fIIyMb1sEqPCBOlytAbfeRfzZ/w17y18m/4PfQJ78ViFlePn9AMae+gbh3/08z/3Ez5FPHNyxhcT7AK4/7mOPgdOBlN7vSZIw6M1pCd0jIgJRPLIDUjOmytTDn2T8oY/jwnqCIEZ08jD89Z9FXvsmfLpzwqXOOdyhY8Sf+vvofd+D/Ma/w518rqtStIuCNT0aYpHB2UdYBrYkhA2Sh0wjeu8D8MPvRQ7f1JdOV93gQ0Bfcx92yyuwr/wR8fd+Fb8wv95f4T1Dz3+bo7/1QZ5/z/uw4fHuJ+wD2nmLspdtf2aRHvfjPWDP5kn0MwjhRIrGsX2OjxvC0LOPM/3Z3yJovEyHz1Az4rHbsH/wT/H3fu+OEsTF8GmJ5J774f3/jPzV31UUVV1m4jqAHGylv1ZWBGh5nMr6h0sVDQnxB96D/J0PEI7dumMEsQrnBD80gnvgh7Cf/ofE0QOFP+Byk985hp9+hOnP/2bftB8uh4gQs/40E3YyuBV+z5JErxiY2pQI5dMvcuTDv0iystCF1QR93Zuw//H/Ijl8864UlYWpQ8h/+79j3/ODdEtI9yaw7LAeas+6IUbBlgM0tWtORqzWsff8D8hf/Vl8qdyfQTcJ5zzunvuw9/8z4s13rfbCuvQ9Zkx88VOMPfz7OxMqNyPvo89DByTgc92RRL8y2q44BuBbTaY++WtUZo5f6hQzQ03Jb7kLfuLvE6YO7vj1XAl+eAz+2s+gr/9uVOO6FdQ7hy04YibbsihiFCxzyLIWKeMXo2NV2Y//XeT7/sqOWw8bwTlHOHIr/Hf/K3rkFtbthkQIKMc+/m+oPPdE/y0KEaRPCX3iPV4Gcx+vL5IwuqpexaibVsPa1DBmDD32FYafeWR9FEEVO3wT/MzP4ScG02HpavD1IeS97yO+6t7iwb986yEO8m0+vGZI0601VLrwuhKdJ77nv0fe9P27UjtzOdzkQXjP38PqI6xPNhCcGVOf/U18nxv6CKC7pqjRO3b/G+s3urB/4ePpn2kmGhn90h/gW611Y+vQEPYz/wh38PCeEqtzI+PIT70Pm+omZybQEqxHhTUVQVsJ5HHdNkNFsLf9IP4d78b30PB5J+Ccx73yddh7/0ERZVmX7u0YeuZrVL/zWF8b+pgZIeyNe7AV7Fk9iZ4g3VWnnHOdFWz7LG7iGHr669Se++Y6ho2Afd+P4A7ftG0FpDzPaTabRa+Fcnn73nDATUyhP/g30A/9Iu6iFdRhqHq05dCQb7nGQ9uGtOi6zeDILfCOH+tLv4s8z5mfnwegXq+TJFvXG1mFcw6797vRx34I/uSTRaZu51wChNYKU1/4XZZefR/0oI624bjeb1s1G0BNNyWH569nPYleM8l2er9reZuJz/0mIcZ1vggbPwj3vxPZxmrRarX4zY99jI99/OOcm5kBYHhoiDfffz8/9q53ceedd/ZssjsfsDe+Ff3i53BPfu2S0KjDsLZhZQd+81szRdBW6PogaYzoO96NTB3aVnn24uIiH/ut3+K3f/u3OXXqFIgwMjzMm970Jv7qj/0Y99xzT0/n9eLI3vHD8OQjcPrEpX8UR+Ppr1P79ldZfPWbkT626+sLtMj+GcRmYE+ShNBptmpb77LVLTTfr3RsE6Hx/JPUn/7GpZmdZkU7gO9/F/7g4Z5Wt3a7zcNf/jL/5z/5J3zp4YfXhck+8+CD/NK//te892/+Td7/vvdx6NChnsjC1RrkP/I3if/yW/jLwrbehLwNWpZN505oZriWrYsqmSr6qtchb36gZ+LOsoxHH32Un/vAB3j4y19e9zz84UMP8Ssf/CB/6yd/kve9730cOXJky/fETR9FX3c/fOZjlxKZCJ7I1Bd+m8XbX4elV0iZ3wI0Zqj2wZoYoKzhnvRJFGZUbypSGx3TraZjy+fOI42nvlZUMV6eEzF1AHnLX+ppxVRVHnzwQX76p3+aLz38MCJFss3FP0mSMD8/z6988IP83b/393j2ued6+gwCyJ2vQd/43V2btkjWJYdgA5gA6nGXp3eboSHAD/8UrsdQZ4yRP/jMZ/gbP/7jfPkrXykiEyGsuyfLy8v8yr/9t/xP73sfJ06cuPqJL4OEBO5/JySlLrkTntp3Hqd2+vmePsO6sUTQ2J+sFNvs7OhHTsa2z7BDiFGRfoUz1fCab0vS3IAka1J59olOXcnqHwzFsPvfiW80ejr37Ows//c//+ecOHWqSEnfgGhWfSuf/8M/5EMf+hCxx4hNSBLk/ncSk/L6h6hNRzHq6jCTQm7q8q2hGXbsTuS2V/U8IU6eOsU//4Vf4NRV7omIICI8+OCD/Idf/dUtJyo555DDNxFffW9RjXbpyfExo/zCk91N1C3CzPqW0GdWCCldCYIgsXXF92wGe5YktMcvpVts2+ioAW7zew6Ls6Szp7h882KlKnLPm3ueEB/56Ed55Gtf2/Q2JcbIhz/6UU6fPt3jiCCHb8EOHur6N8s2aworluk6x56KIPe8cVu+mc999rM8+uijm3qviKCq/Op/+A+cPHlyy2O5kMD3/SBRuihai6Ny8nkKYdJtQgSH9mXSRSuUrgaBPUsSZkLeQ+JJ1O5eXx98V5n9zV+P4WZnSJYX1/9t8iAyNtnTeWOM/Off+I2ig/omScJ7zzPPPMOf/fmf9zQmgNSHkCO3F+nqF59bHJaxOSeOOiS6dUKzlpbgllduK+z8id/9XbIs29I9eeHFF/nCn2y9c7sA8srXQWN4fQ6JGaWzx3Gt5pbPuw5mOPF9yZQwhDig6bsnSULEkWtvncStiwXinMPLdjUUhdL8GSTvksN88BiUepc4ffnMmS0fY2Y8/KUv9TwmIUEP3dz1T6JuU1aXWfctodVGsLHpbSVOPf/CC1t3AIvw+c9/vqdtpS+X0VtfQbcP7udn8Nn2zXYDSkl/om8xRuKAVGf2rJ6EqWJRYYs3dSOnr7dCGLVno9E5mD0HWbxklVURZPzAtkxr38OKKyLbe0i8x49PFZ/r4vNIsZfNzRHkyuePkhTVupetvjLcgKGR3q8NaPTo31mXq7EFuMnDXV8PrRaS96GHaYy44PpSAapm6766bsiybNt6EnvUkig851kPjjl1HuniHEp82F7WpUCptYxcvjc1I45N9Jws5Jzj3je9aUurn5mRhMADDzzQ05hQRHvi6AG02wNrbE5gtRsja4ShKSTZXsXra+6+e0tOSOtI5b/9gQd6smAEYGwC7ZI45fOM0Fza8jkvh5qhlm9bNwOMLIJ10+rYAexJkgDI1ch6uAe5alHIdBmCFyrb4QgRnGr3VT+t9EwSIsK7f/RHSZJk05NCVbnt9tu59957expzDUO1rloTAG4TyWxiApfnU5gR6w1sm6vlX37nO6lWKlu6J7fceivf//3f3/OYsTFUdJu+DJJn+ObytlO0HRCc60upeIyuK6HtBPYsSWCePNv65Zla105JAqRedqPz/FXxjre/nbfcf/+mH55SqcTf/qmfYnhoe2nu4rureHszwnbca1dTrd4E7rvvPt785jdv6p6YGaVSiZ/9O3+H0ZFtbHN8pWuIUqyo19nuZxIR0m1aWABYsY24oZOpVtHKtt6JWVcFZi6D956qd+g20mvNrOu5t4tarcY//vmf56Zjx4ov/wrjt1st3v2ud/Hj73lPH8zW7ohmRL36uY2dI93x8XE+8HM/x/SBA1e9J3mW8a4f/VF+8r3v3ZmL6RN0ta1DH9DsQ0R2s9jbJNFDByrdwJIAKAcpWlH2cjFqtNO0u+aCZdvKbHPO8dbv+R5+/UMf4nvf+lYqlU6k5KJzinNMTk7yDz/wAX75l36JgwcPbrvs2pZXumZdmhfipsLFsesTJOi22wt673n729/Opz75Sd7+trdRKnVW4ItK3Z1zjI+P8/73v59f/Ff/iqmpqW2NSVzp6gnUEMhLlaIFQo9QVcqJ78lJfTmiRrI+CQVtBnuydmMVeS4QI4QtXKYI+QbfZTl4UjJ6ub8GWFrDuKya1MDNzhQP1zb34fe+/vX8zsc/zmOPP85jjz3GC8eP02o2GRsd5dbbbuPVd93FHXfc0bciNjd3HtpdliQTxG+iwlByUM8lTCEOf/YM5Bmk2+9n8apXvYqPfuQjPPb44zzx+OO8+OKLtFotRkZHufXWW7n71a/mFa94RV90KvzCbNfMSnMevagHSi8QVSRsrOa+FbTaETVFBiQ6s2dJQgTyXGnHSDmETa/+4hy5FM5Ld5ljxzmhnjjOtruoJ10NpuSNYUg9ZBeVWQvYzGks5tAHvYR6vc6b7ruPN91337bPdSWoKnb2FN4u619v4LxussCr0A1Vu6iFoHPo4gzSWoFqrS/XOjw8zFvuv5+33H9/X87XDQYwcw4X4zqyz0MJLW02eN/93M45Sn0gdzOlmQm5+oFJNe5pPYkcRztzpKl2DWtuhHZuWNLFSy2O4cRzrrX1mLcA2egUUTyBS4+3syeRdhPKfekZPRjkGZx5qWuFrHaaYF2Vmb0RvRAuN0YWlrC5GWx0Yk8J71wJBuhLz3ULbhAbw9g2u3yZ9Ed/1YBma/MOiSRJtq0nMVifhOmWHJEijoVmvuU6jkhhhXRDJfGkm0soXIe8Pkqsrfeey6nj2MpyD2fcPdjKMjz3DN3yr0V0UzdITAhdtCfc0hycOtGXUN+gEBcXcC8+zbqeKSK0xg+Rpb0L95oqCev7wfR2LmN+afPB2H58BQMlCcub6OWVdlfBSsu29EGFwuveVOlewyFQS3zX9O2rIWsM056YWn/nZ8/D41/bxZ7dW4edO42ceHZd3UU0xUqbfAQFYmC98zPm8PSj66sq9yjUDL7+MCx3UT03ZWXqaNeOaFvBunL6HpFnkSzq5qOx+cq2xxwoScRshdg8j9+kI7LwSxgxbs2rLM6xErv3N3AiVPzWW84LYKUKK8fuKkz1iy7Sm8HDD6L5tTEpAPjml5Gl9UKv5hwim890FYvryNGZIY89ivWjKGoAsKyFPPSp9TohFP7o1rE7tuWUVlW837jcfdPXaUozgzxubtoqkXxx63VBl2OgJCFmZKefIrZW2a2jKdjRBGD190XIM8gyw7YQfhIgZ73MARQOpGoA6aFrlfjA/B2vJ14uUOIc8tS34Olv7Fhjl2KY/nxd+fmz8NAfXKLruAZvm948O4DUY5dflwhy+jj251/oueR/UFBV7JknkKe/0VX5PJs6zOKh27Y1hnNQ7sN2QxUWW7Frd7tiDrm1304MXZohXzy7rTFhF6Ib2ppn+cU/h8YhktoYmIO4TGtplpi3SStDlEemEVdECgxYyo3aFjXoDGhFIzhd9+WUg6fuIgu2NVk7MWXh2B0s3fJqhp5+9MJDJYJXJf/Uh+HoHVDrrTjpSlj9DM65bYnnxDyDT/8n3PlT63QgohrUja1E1pwzYqLQdhdupghOI/bp/4y95j4Ym+j5enca1lqBL362q6KYaeTsG76f2Bje1mpactIXIWDMWGldPhEEbbfIVs5jFvE+QWOOy5dozb6Ixe0nVOxKCDQun+Pc8acvpMBeZiXUJm9h8o77MeeJBq1mRBsJWzH4BEfLlGqXhSzxnqHUsdDcIksArlTm9NveRe25b+H1opXYe9xT30K/+TB67wN9UUS+GKq6bYJQVXj2L3APP7QuPKwI5kCS9bL4V4LD0LIjZoa/+GY6jz/5IvlDv4f+1z+J2+aefqdgx59Fvv7F9Y+BRtrDk5y97x3bitBYjPjQH4Hmdm5crFTgMFrLc5x54o/IVuYuee/VopNbwe5mXJp2zWJbnnmB9vyJtey35bZtvTOXEzKVDc3/odSTsH4/fTWIRuZufy3zN79mfXVDnsHnfgedndniWTeH7RAEgC0vwWc+Bt2Ec0ShrvgetmEuUSx06SmaJMgXPo09/fiObsN6RWyuwCc+hCzOX/oHM6LzzLzhAWz0wLZIwjmj2qdeG62WrqnIiwitlXlefuxz6wii3xionsRWjp899R2mhg4h4snySKutbPVeRyAz6HZYyTtGEsfptm49Cy5JOf+WH6D+4uO4/IKTz5nBXzxB/MSvYv/NB/ZUjoAB9iefxv35Q8XW5SLzWhHwioTeSMhhaAVsUTvquBf9bW6G+Dv/Hvtf/kXfravt4P9v782DZMvuOr/POefem5mVS2XV29/rfkt3v+5WS91qhJYRBJIHhEADMygGQYxZhA2OAA94xvzhJQwOCI+DcRCMxwsTnnGEMIPHgCOAYTDIsgaB1FpaSwup1etTv32rvTIr97uc8/Mft6pe1astsypre+9+IrpbqsqTeevmvd/7O79VAP7iD9CvvojWa9sIhJWjzL/nQ+umrfeLdY6cGU7oE6DVS7CSlhY4JbjGBKPFHBTXFo0N8/49sLUbUauGc1HaW8IZmr3BviwFoDSdZH2np9Kaam57ORNKKRpPvYvm0+9eHeZT6QWhP/8pkj/7v0gOSO6EiyPcF/4/9L/9vXTvfd8NIdpC3u1oBo3WDgK1xrpSKMylV+D3/hnJOtGU/cDGEfaFP4dP/d/rCoSIY/49P0B49PSOhN6IkFNmKKnYSRzT7rDs2NdJQtLeuVOyHw6sSNioS68xt/z0abQcdpNqwI3oOSHeILEq7xlKRg28lVGALRS580M/R1g5dl9nJ4VRGv3n/wZe+AvsPucKOGdxL70Av//b6Dhc40ATFPgKFbCzoiwD5NepklUqnR72+U/Bn/1r7EEQzldfQv3J76Bssja6YxOaZy8y8z0/vLor+jZQCgIzJCui4+glsny4ErWRZG9CzAdWJMQldOZvL4Z0ILJLiVWDhULRhraVdffzWikqgbetNgEaiI+f4fo/+MeExfJaoUgi9J/+Lnz6T7Dt1r4kWrleF/fiZ1B/+C8w3c7aHAAF1hMYGXy03/1oBOU5ZETWttVTCq00+q//HPnT/5OkUd/z8yGA7XWwL/57+MT/gFmorYloiAid449y4yf+a1xpdEdWhHMOz7AmpL8drLXU2na5NMHzfcLGNG69fqu7wIEVCYBu7S5RL82pcE4z37EDx90V0LFpp6v70VpT8jX5bZaPK+doXXye6e/7ceI1uQIaHYboP/kE8oe/javtjWkIizdEs4788SfQ//p/wjSb61gQ4DxBFZJ16xW2gxZB5yxS0uv239RJjP7MH8G//A3cneEMvOkX2+3AJ/8AfvefYzrtded7RoUSt3/oZ4mPnUHvcKyfYCkabyhRjThydMJ7Gi9OSNrTqD2SWvOxj33s19f7Rbe7eTrncs+DDRjGerExQXGMfPkIICTWMV40pH63/q9sJ+Ap8NdZZ7TGiKMeoUH8wQAAIABJREFU9d/SfiVKa8Izj2FaLQo331y951cqNeFvXoG3XsGdOY8Uy2C8XWsY46IQuX0N+T9+C/21z62bMJWGOxVqJEm3GUP8fAVpQhZpm437R+cpQM3egde/ji2PIUeOofzhjNBbDxdH2NvXUf/mt1Gf/+Sa0YbpgaYNkid+6Kepf+f37WhuKaT9Hgpakd/BQOPl97KWRjthoZWOOFRa027M4OavsdmjbZj374EWCQCxCYUjj6SmlhNyAeRzZqCTL5KmaBc28DT7WtGJHaEbfPYogBiP1hPPoZ0jf+Ot9Cm04n0UoGuzyFc/i8xMQPkI6sixod4YVgS58Rb8u9+DP/oE3sSt5SzWlaQCYWHEYvyddm1cH9EKPIeIB/Hac6oA1WogL78IN9/ClcaQsaNDjX44wN69BZ/8A9S//d8x1y+tez5wjrhQ5u5Hf565930EZbwdnxMtUPG8vssPNsNax8y8JbbptluJsHDzmxi7uW9nmPfvwcxwWUHUmScJW3j5UZxAo+uoDtjaUWtN5ByRFbx1rkPPGI4VPFrtZNvDhSXIcecjH0eUcOyFP8WzbpVFgVLp7IYvfhr31c9i3/09qO//UTj1CCrIp9uTAbzgQpqoI3EEU3fgc3+G+sK/R0dhWmewzntZ5xCjoJTgebsXoF2yXlzR4jBIz6GMuVdMtnQ+bAIvfwX36ku459+P/dCPwtknUEEuTU4byFoUcA6JI2R+Bl74JPqzf4budhbPx3pdwYWoUEgF4r0fQg9jjoVzBF46DGoYhKGlEzpYTLm2nRat6WuMV0eH8v79sKf9JLa1XmmkPQcjoyin6fYccWTJ5QdzpyitaSaWwFi8dZ5YRV9T8hTNZLDeFas+wximPvyTdCvHOf2Z3yfXWlj7XsagbQIvfga++SJy6izuwtvhscdxZx5DV48gQR5yeRwKY/S9IbNJiOr1cM0a3LmBun4JLr8Bty5jep30RtjgaexQSEGhAovZRYFYiVaCy1swgvRgXReY1mjn0C99HvvNL8MjF3AX3gZPvA136hxq7AjkixDkEBTaLGadiqCSCNXrYVt11MRN1PW34MqbqBvfRvdaKNT6Xc0WBaUzfoKJH/456u94/9DmzioRCsobyiR7cZZ6y+FYKkh02O4049XRPc1jOvCWBOJIOrMUvCewsRAlUGtbTuQG29crIBJFaMHotUJglOJIoGjuIGKpAOfnqH3g79E9d5Hzf/DPGZm5vfY4F/MpCHtw/du4a5fgryRNUw/yyNhx5NgxxAuQ/AgS9XBJjG7Mo6Ym0N32Yqaquve03SjtWcBqgUKCzrNUS79naB/wFKIF19HrOwSVSocFOQs3L+NuXobP/jtAQz6PO3IMGTuBeD4ql0fiKK1PWJjFzExjOs2154N1thaLiAgLjz/P9Z/5r7Clarr9Gdbf64Exg1mFGxHHwkL3ntwoB3Fz+/Nft8vBFwnAdupE9Vn8ctrodLaRMF40BPnBUjC11iwkFl8rfMMqodBaUwk8xkNHzW3/olGkhWC9R5/i6n/y65z89O9TffkF/DherK5csQVZ+uyVF3PUQ0/egInrQNr0NY0+LBVQLRYLbVGF5VCIckgAFATtCXqj8Wa7yPIWIwfWi7BdBb00l2TNSV5KFIJ7f1/YQ9+5AbcXoyGyNPtELZ7sxezRrarSREAcYanC7Pv+DtMf+ChSqu449Lv89oBKEir5YCgRDWstU40Yu+SLUIq4M4vd5RTs9TgUIoFLiOo3yY2exDmLTRRzbcsJXw/s7HIoOglU9NoHjWcMp4s+nWZMmBqr20YriMZPcOvH/zGNZ97L6T/7HfL1qa2HFg9hZoV1DgkUFASl0wasQ+p5siOUUVACCQTbc6hEbx2DXyMA27sBnQiNi9/J3R/5WbonzqG0GWoIUVlHzku3h8MgjByt1j0rwngB3YUJxEa7FhnbiMMhEkDSnCZqzWAK42gNC+2EI0WDvxgW6hul6VhHwTpy66wLfI/jecftTpI2YNnBMetFM3rhOz5A98zjXPj9f0J+4gY4EKuX2zbs6LKSxVkjYhGlUDkQH5SxmMVQ5EFpmbX81A7A+eB6CRJriFOrTg9jI7+EpL0602xax9SHf5LJD34M8iNDsx6WcM7hKSgGwVBSsK211DuWKBG0TnusxN06SWNyzwUCDngy1SpcQjR/c7lWIokUje7gxTeKtPCrZTeuqhwNNFV/8HTtDT/TOcJjj9A9dx5V7CFli6oINm+xOYXVEC0OAHbp1Iq06Grl9kDu/bP0+0RDrAWbByoWVU4gb/GCFQJxQNFK8AqgygJlQQqC9RxWyfZFbfH8WHFYzyGBTftjjCbU3/l+KBR3JQHJAEVPo4fUvjqKHY3OCsUUoTdzeSi9IbbDobEkAJLWDNZ2UCqdfzHbclTLgjeg1Gmt6Ql0E0fBW9vxyfc8jheglcTEDOfhpljsmIxKo3EmwfgAEYkTtKTmb5KA1T6ec+hkbUPaRCus56FNmIbsfI23alb6wRaH+9FKIACw2ECljurIoGKBxXMi1oFRKFHLPo50UpsszyMVldY1uEChPQFvheWSbC//pR+cc/ha8Lz1B1UPijhHo5kQhSxbES5qkSzcHcLRbo9DJRJiQ6L5WxRPPYN1QtgT5hsRx8Zy2/qCGongayFYZ2ne0zxa8rjWihBlhiIU4eiJdX/uacXSwJ/AWFJbB1iqAF6671X6hS2LgmF53YPAsvXj2dTxapPFKmBBMCixy+dCJJ00hnMon/Q0GNbOMBXBeQFifHZDQBVCxQ/WDatvhzC0zDZXRjRcakHfP81+Dzmw/SQ2Wu+1egTjZ9FBCa01M3VHtZj2mhg07JSgaCeCUXaNR1przWhOczxKmArdUNqPJWabw2L3fhu672hk2UeZ+gJXby3TX8n9P1gX8QNkSI1flnDOYRDKvoc3pMQpay3TCwnWqWXftY27zN6+RNJdXWa/l/ff4fFJLJKEbeo3X1l2+lmnmVyIN5z/uRlKadoOQseG1aVHCj6j/s53sgIkO5jdkLF9LAor26zi2wgRfKPwB93rbvR2ztFuJzRb99rlG89n4e5agdhrDp1IADQnL5N0aovdgaHddkShHbi9myIVilosy23B7sfXmhN5MxQnZlxMC9Uy9hIhHqni8qWhvqunYMTzdxgov4cTYa5hSZYz1xW9Ro3m5FtDef+dcChFAhHCmcs4SfdpUQJzTct2b0BRmnrsSBK7Rgy01hR8jyP+EHb/D+G24UCwNK5hCG8lANZS9g2+Z4YzlUscC82EZk/uvZ8k1G99E5eEO37/nXI4RYK047ZdmEJEUFpTazpqzWRbo+UUEDpFK1l/rVIwmvd3Xh2YH84A3YwBEMF6Ac4bjuNSWUvR13hDqPBcIowsk3MJ925HRXd+ku7craF9xk44tCIhNiacv4Y2i+3RtGZqLiYKk211lVY69U901+lipZVGW5tOnN4mSgG5zCexLxgPGVKqdE4rcr4/JAtCSBLLxHxMIvpeUxlJaNx9E9nHiMZKDq1IALhene7kt5dnSCTOMLkw+IDhJURpapGjm7i1QuNkGM8hsj3H3iPax8nOL3VfKwqBP8SbRmi2Ezqte70rjfFJGhN0FyaH9ik75VCLBCIk81eIOnNpgY2CVtPRbtttbzvQhloC9UhoRzGtMKIWJkzHOzRWRbC5IjYoDGfUc0Z/iKCCHHoHkSXnHOIs1UU/xDBSr0WEKHZMNyx2McdHKUUUNginv73uPJr94uD3k+hjfT75Okef+gDG90kEpmoJhbwmyG1v36iUpivQjiCtulQEvodxMZad2AI7L97K2Fucc3hAJfAw/vByLaxzTNRier17KTiSJMxffonO7J0Ddf8dbktikd7CBN25a+jFPg29RHF7Lsa5tdGKQdDGpP+otE/BiGdA3HZjKCRBgSTYvG1YxpBRiqQ4znZiU2nCFOSNGlpGZfq+llozptHkXr2Hc3Rqt+jWbg/tc4bFAyESiFC/+Srd1r3ciWbHMV1PGNZQa6U1Oc9Q3qZQLDWkcUP0imf0yTa3Bxqh5BnyvjeULQak24xezzFXs/eMSqUQF7Fw+3Vkn+e0rMeDIRKAjdrMvvk5XJwOLFHA/EJCtzu8k64XhWI08FDb2DMqAJttN/YSUYrYHxl4nbOWkmcIfDOUJjLL7+vSh1e44rLUWjN3+WuErd2ZIbtTHhiRAEi6DWo3Xka5tD1dYjV3aglxuL38ifXQWhNoTcX3MM72PwhXIMmNYHM59jLrUpTCjh3HaX/1AKE9J+0ruddOW1GKqHJkoOlk4iwFowmGlCy1hLWOifmYZtstv69ooX7rNVqzNw5s3OuBEgmA9sxV2rVbGC+dzNXrCddnIpJk+zkO96O0xjdpuzsjrn+hUGrPI6CCIO/7u7h/8F9ix46n/Tj2Orri0pBy8twHsaW96/K8hBpkUrq15LWmGAxnsM4SIsJCI2aubpHFaIaIENVnaN55bc8G7WyHB04kXBJRu/Y3RO06atGR2ekKk/V4qEKhtcbzfao5Hx/BbZloJTjlIcrf25tUwLUaqHd8APmF/4XkXT+Ay+X2xqoQwSmFPXMR97P/FPnhX0SVjrG39SuKOH+UvnTCOXJaUSnkhiwQjk4nZqqWoPVS0pRCiaV+81sk4QGYj7oJD5xIACS9Fr3bX0/z3pVCKc3CgqPWGHzg8FYYY6j4Hjm9dVM07QfoIZcsb41garcgjtBjx+Hv/+fYH/8VkuPnl1vT7wrW4vwA9z0/jnz8v0M//bfSBjP7kSPSR6WmtZac0RTzwdA/Po4dE7MJ0YrniNbC3OWv0TtASVMbcej6SfS7fnbiJkXrcfzJ9+OURtBMzSV4fo/RYjC0vaZSCs/3KBtNK4zpubRhyLqtzGSdqdu7jBZIFupIFOLlRzD5EXjuA9jH3on9zO8iX/4LlI3uNcrdyfEtdY0yHu7CO5C/80uYc08tO3ldpwndBfZ0z6UUsQ4Qcet+qnMODVR8w0huuAIh4rCx5dZMRCe+195OlBDOXidI5hkfG1t37X7fPyvXP9DxuM7cTWq3Rqmeew5xDtGGiVmLkZhSaTj590sYrSn6HiSW3gZl5yDYwuieJ1SphWlUrwWVxQtSHKZYxn7kF5Bnvw/52ieR1z6H7jQXO3xt4/isxXo+cuFd8L4Pw8X3oEcq96JASsHVV1HtvW0Jr0XQ+Y1zU4wIxcAj7w//VrDWMTWf0O7dq8vQQHv2NnbuytA/b7d4oEVCbELt+jfQXp7y6SfT/olWc2cu4YKvCHLeUIXC8wyjnsFEMb3YYlnbLcttNR9iN2gv4Jp19Imzq8x94/tw4Rnk/DPYD/wY7i9/D/3KCygXofs4TqcUyiWIeNiL74Xv/0nUhefSmRr3bb6sc/DK59FJuP7Ivd1g0XJbHF9877hdmudiRKgEHkEw/C2gc46ZhZj51upBUGGnyeyVr1ItHZ5ivwdaJCB9gNWu/w1eLk/+yBkUiiiB6zMxZ49CPj9coQAoLRYBdWNL4tyKHgGCzY/glNpjZ5DFTVyFi8+DrHWwKgXeqfPY//C/wX3oZ1DX/gZ3/TWYuoFqzUGcgEvXifFQvo8rH0OdeAQ5/QzqwrOoE2fRQbAYalzHkuo0UdOX99yKEi9IxyauwAC+gtKQBuncj7OO2kLMXM0h6t5YhqjTSHN5og6QicSBQmxI7drXORaU8UtVtNaEoXBrOuHcCU0uv3qa1zDIewZPKxqRxcm96GfoF9nrOKhKLP7U5c0n/IlgjEFOnkVOPArv/buQxLi4h+00oBumh12u4OVGUges8VHaLLcS3NApqRTGJaheZ+9rV5RO/yG1ZrzFLMrAH2xMZL84cdSbMXfnklUCgQ2Zv/wicac+9M/cbR7I6MZ6xN0Gs5e/QBI2F0Ojisgqbs5FxNHwQqNLaK0JPI9qzqOgJfWJiGw40HfXWAwDf+kvP81/+kv/Gd/61ivYTcK1inSokDYGncvjlarkTpwjd/4pcueeIjd2AjNSRgf5xbqWrQ+hXl/gk3/1WRqOPe/eF3sB1s+hnaVkNNV8QD4XLIYihysSzlkWWjETs3EqEIvj+cAxe/lrhI2ZoX7eXvHQiARA1Jpn+rXPEXcay0+0Xle4PhHR6e1OzrxnDCOBT8kzGBxxbh+6U2lFvTbHJz7xO/z0xz/Oq6++tvx07YvFOZoDly8rzY2bt/j5X/xFfv7nf4Fup7fnloQzBs8LqOYDRgJvqIVaKxFx1DsJE7MWi1nOhRCbMP3G5+nM3uCw9jd9qEQCIO7MM3flK5DEaQ6F1vQSze3piHYn3rBr9k4wWjOS8xkNPArl8t6b3A4eKQbkPc3rb77JT/z0T/PFL36RKB5+3sgScZzw0ktf48d+/Mf4kz/+YwIslW2W7u+I3Ai5UhlPD2fS93pYa2k0LXcm7ap2+CIxc1e+Qnfu5q5cV3vFA9FPYuD1KmLq9b/m+DP/AdrLAY5uKNyeDDl90qc8ss35GFvga4VXGk/9H+s4EHeTC5Uc1YJHaC1Xrlzhpz/+cX71V36Fn/qpn0q9+0NMcur1Qv7wD/+Q//bXfo2Z2VmUNjw+ViHYY1+MUwoZGUMNOf9hJUtNbCfmF2exLv5ca6F75w1ytkGwzrV4mO6fh86SANLZiguTTL32V7i4g0japTgSw62pmGYj2lafzH4+NxmpYPVeZ11COWf4W6fKiKQ+irsTE/zDX/ol/tEv/zI3btwkSXZeBOecsNBo8hv/9Df4R7/8y8zOzaUl1gI/eKaA2QdDIq6eWnwQDBcRwVrLfD3izpzDSSoQIoKIpXP7ZaLaTcTt7cNgN3g4RWKRsDnDzKUvoSVe7hdgneH2bEyjmfRRjzE4Nl/BBbv3ZNsIjfAj5yv4mmVRVErxO5/4BD/4kY/w6//kv+dbr7xCGEaLPTm2fuqnr9PEccz1Gzf43/7Vv+IHfvAH+M3f+mdEcYxSChGhkvP4vrOVPfgr1+JK5bQCdshY65iqxdydu/cwUUph44i5t75MVL8z9M/cLx6KEOiGiNCt3eHOy5/m1HMfRnu5tDLPws2ZmDNWODKmBnPybUXeh+2O+9sJAh98tMLZaoGrtc7iYCKF53lcu36d3/zN3+S3fuu3+O7v+i4+9rGP8fc/+iOMj4/j+f5yo2FIk4ScTeh2u7x56dt86lOf4nOf/zxf/vKXCcMQYwxKqWWREeDt4yM8e6y4L347FZSQoY3QSUkSy8RsyHxLQFQa4VEK5xJmL71AuDBJbgtz/zDxcIvEInG7xuSrn+HoE+8hVzy63Mnobs0RSsTxioc3rLTdoAjFMjSn2et8iaP5gB85X+V/rndX/VyvcOp94Qtf4Itf+hK/8qu/yonjxzlz+jTFYpGlEbZhGDI9M8PdiQm63S69Xg9ZzLFYbxZFoBUffWI0rVsYVpuwPhHl0asco684bT/vJ45OzzJTi2l00paGqPRyCVs15t56kbA5O5TPOkhkIrFI2Jhl+o0vcPypD5IfO4ZN0pDozLwlihyPHFNDGQzrvDxJoczebzgg0PATT4/z+5dmme7G60qU8TxEhG63y/UbN7h+/fraF63YimyVb3BhNM8PXRjbFytCtMIVqsiQxLjVTbg7benFslysZTyfbn2CmUtfJOk2hvI5B42H2iexEqUg6TWZfO3TNCfewiyWRWqtabThykRIqxVtmojUD+LnsLnyvtw0WuCZI0X+i3edWnayrcfSdkEthojX/LPy9xsIhACJwE88fYTHK7mBOkMNCyUKlx/pr5fEBiwN0Jmuh9ycigntvXocwdKcfIup1/76gRUIyERiDS6JmL38FXrTV+4NXVOKXk+4OZdQb+8s6Uq0hwry7FdijSfCzz57nJ955mjagHWXPsc64fvPVvmFZ07g7dcYAaUQT6N2sN2wieP2bMjkbIJ199KsNcLC9W8xd/kry31VH1Qe2H4SO11/980XKZ2YoXruXRgvTeNNErg7ndDuOU5WfTxv8AQdbTxkpJp2hjL7o9FFrfjV957hci3mi3cXhu4aEeDpIyP8y+99lLH8PlS9LqEEz88xqKyLOJwTOh3LndmE0C76HwAlgrMR7YnXMJ1JqpX1p5Xv9/U7zPWZJbEJranLzF56gagzhzFeei8pzfyC4/ZMTK9rt5VJ5wol9jtF91Qxx//4wUd4YixPMsScECdwuhTwm9/9KGdK+ztjRImgjR5YBF3imJqNuDUdEzm17PdURtFbmGLy1b8kaU6w39/hXpGJxBb0FiaZev2vac1cQ5PuUY3WtHpwdTpirh5jretbLJxAXCjv+6g/I8Jz4yP8P3/vSd5zsrLj611EcAJHCh7/4oOP8ZGzo5h9/RtXdJHo8zCsdbRaIZfuRMw2waKXfTcaaN6+xPQbnyVqbf6UftDIRKIPXNRj5o3PM3vlq9i4gzYmHbbjNHdmE25O9+h1La7P7DrxCgdm1uP5Uo4/+Mhj/MfPHMUzBruNMKWTtHL0w+dG+X8/+hQfOVfehSMdnDhfxPUxc8M5R6eXMDkXcmMywdp79RdGKeLOAlNvvsDcla/i7O7VuxxUshBon4hYmhOX6NYnOPrEd1MYO5GKgtI02452J2J81HBibPOwoNIKdjC8djd4tJTnf/3eC3z0sTH+4Qs3ub4Q4vfx+BBJHZTFwOPX3n+an3v6OKWc2XcraQmHIdHepk9Cay3zjYjpmiNxoLjnnDTGozF9ldrVr2LD7ibv8mCTicSAJN0GU6//JScf/w6CsQuYXCGdOQPM1CytnuXoqEc57+F564uFPWAGnF68qT98vsrnxov88bU5/uJKg9fqHeZ7CYldnXqsFVRzHhdHC3z/2TI/+uQ4z4wV0pNwQARiM0SExDq6XcdcPaYVCqL0Pd/DovUwf/c1mhNXeFh8DxuRicQ2EBsTzl4hbk5TOPUMXukozqX1EN2u41Y3oZBPOFn1KZcMak2/yAM6q0ngTNnnF587yX/09hNMNXq8Mtvl242QK22Lh3Ch5HGu4vMdx4ocLeSoBDq9iA7JfZTOwLBM1GN6XcFKOmxpObRpIJy/xfRbXyMJ2xyaP2wXyURi2wgubNC+8VWC6qPkjz4GQWE5JNoL4eZkRKGoOVo0jIx4GKMWqyIP9oVngIpRVMYKXBy/L0KhFpvgHQyXSl+kFZuObs8y27S0uw7n9LJVBIBziG3Tuf0WcWOCpNfa12M+SDyc/SSGvF7Nz2HuvEXpxGNUTrwNky/gnEWUod2BbichyFtKecV42adgDpHz6349O+ACt5K0c5yj3oqpNy2djiORJZ9R+hqtNTbuUb/9Gu3pq9jFaVqH6frb7fWZJTEERISk16J+41u0Z24yevZZKsfPYZPUUSlowhB6PZhvxpyf6nB0l7okZSzihK5f5Oq8T5skrbVY4XcQEYyC9uwN5q9/k+QQNqjdKzKRGDJxp87spS+i2pME1UfxKifRXoCzNq0PsUKX/KF6Ih9KxDJz+rvoUFw9TU0pEEdYv0Nj4tv0FqaRhzCsOQiZSOwG4rDtObrtOdR8hfyxJ8mVTrCUReGMObC+ywcCEUQcM6efRYxBSdqpXHsaCTv0pi4xdf21A5OrctDJRGKXkW6D7q2/ISpU8cqn8auncdpbrN3Y76N7cBEvj+TKaaUqAnGb3tRNksYELullAjEAmUjsBeKwnXlst0Zv9i2OdqZgz6eLP0QoUElIrjMN8hjdu68Q128jTva8UfmDQCYSe4kIyoYE89dSkdhwsHDGzlAobXjitT9iKgqJww6QCcR2yVzs+0CQhHveyu2hQxuKtWuMTb5ClhC1M7J+Enu8XjuLajaz63YP8OIepemr1G0Zd98k88N6/ezH+syS2GNGow7HW01cFt7YdRSa470aeRvt96EcajKR2GMeW5ik0u5kzvU9wMXC0bkmjxzSQb0HhUwk9pAT7Rpvn7+OrwRc5jPeTSyC6/kYUTw/dYlS1NnvQzq0ZCKxR4yGLT50/SVG4iitj7IBmWNi95BYoRIfLcJ42Oa7b30Lz+7O5PgHnUwk9oDjnTofvP0tikmY/kCByfYbu4qHxlsqVRV4pDHDd05ews9SsAcms3l3mbONSb7n9msUbW+54zKAWA+LypIu9whfLM9NXaEaNnnh0ef3+3AOFZlI7ALGJpxszfPkwh2enL2Np9ZaDaJAWQUm23LsDmvPq8FxYWGSSvgFrsfPMXnkDO18iSzLanOyfhJDXB/YmEdaszw1f4cTUQ0/CjEbXIAaFgcRH/7R9AeRxGgQvVagBcZ7bUbf+goXr/rcqJ7myugZZopV7IpcisN4/e3W+syS2CbGWfI2Im8TxnsNzjTnONmeoRKHaGTxQbb5E0oSweXUco/JjOEhCHhq3Q5aSgTPWirW8uzMNZ6Zuka9WGamUGGyeIR6royfM8R+jtgPkGFOlT+EZCIxAMWwTaVdZ7wxy8j8FOWkR8FG5KMuGjXYvEsBpwMM4e4d8EOMFgEXsWWp7WLzmSOdBkc6DS7O3yLWOeLbOXp+nvZIhVr1OHPloyyUx1dZGw8LmUhsQbnT4MzMTc7M3qTcWiDQDuXcOj1jMmvgIKE0oPXAvTiNKIyNyHcjKt0mNGc5N3sNl0CzUObmmYvcOPn4rhzzQSUTiS2I/By10aNYz6fanKfcqVNp1jESY7SG5a3FgCgwTrKtxi5hRWO9HPnFvJS+UQpR4CyE+QLNYpVGYZRWsUInX6KbL5J4PjxEFmAmElsQ+jmmqieZqp5MfyBCkESM3L7MmdYsRzoLVHstfHGLTy/Sp9fKm98osOnFhwhKFODQQnoBZ8714aKgWRrlS8/9EI9NXObU9DUqzYW0U7lxqytwlUJs+gV0PJ9ascp0YYz6I4/TKI0vCsLDTSYSg6IUkZ9jcvQUV0dPoZ0l5xJG4pBCHJK3MR6OSj4HCNbziTGE+QJdf4TEGIphh9PXX+WJhWsYpVJHZ8bwEJgrnaZTKPPqY9/BG+dlc2RyAAAT6ElEQVSepRB1Gem1CMIuvrO0220AesYn9ALafp6eFxBrD1GK8erm0YGHiUwkdojThq42dL0crBhRsVkIqpcb4erpZygnTU7b24N/qDjS9kuZCbIeohT14rHl/2+NR6tQplW4N6N0qxBgxj2yfhL7tf7oceZ7Zzl999Zg2w1nSU5fRFuHnr6WCcU6xMZjItz8O9j37/8QrX+4A8D7TCdfJPGDwRaJI3zqu5CL78za8m9AZHJ0dW6/D+OBIROJfSQMClg14I5PBDNSAJ3tFDci8fIk2fkZGplI7COiADWgNeAsJj9CFhLZmFj52DVDmjO2Sya3+4hF47bxFfjmwf/aHKl/VhnSUHGfiFIk2sM+5KnUwyQ7k/uJUmkORb+IgPFxXp4HPcNTROiYAiIDXqIiWJOGMTOGQyYS+0iifewgrfUVxMYQ5wo88NsNbWjkS8Tb2DY47SEP+vnZQzKR2E+UAjPATSCAF0ChwANvSSDUvVG203AuUQaXbTeGRtZPYh/X26hBbAepQBLwcuA9BCJhNMnYcaQ3DfEALecUdCJLdfzIpiXeB+H7PyzrM7ndR5w2uAH33Mp4KC8/mEaI4ABbPY3zcociv8Lh0/JLJDqrndhvMpHYR0QYbO8saQm09v2Bb/S4epLwme9BBnGUDgGL0DU52mZkoHVOK2KvQC83MpD7RZQQKS/LRB0imUjsI4n2SAZqYiIY7eHpwW8AcQ539AzK7e1XHpsCX7/wvbz0xIdwrv/jdsYn8nJ0guJAN7w4NeA5zdiKBz/g/oBhRyob9s3cGMEohVJ2zz0ZyiicMrT90kCJY6I0ifLoBZWBAzmZDTFcMktiH7HK4AZsqh+XqthBfQoiqOo4mGDP/RFiBaUg9nIDtfx1SuG0oZMbbJsiniY0fhYCHSKZSOwjVinsgFaBFMcH3G8LFo0aPYXaY3/EqmMwHnGQ73uFE3DGI/IKq5vEbP1RuCwle6hkIrGfSBrhGASXKw3+OZ4iGT8DA4Vbh4tThtj0LxKxzuHQ9LwRkgEiQKI0vawCdKhk/ST2cb1yDmmWoUN/IU0RdJBb7PLaJwLKy+NXjxKLIHu93RCh0Wgwm9SI+v1sBVEizNXrdJMuduXIvq0wUBitcvUQfP+HZX1mSewzA92yIviF8sC7bTtSxgWFrV+4SygApYhVrm+vYqwMThl6XgE7UFaqIRzAYsnYmkwk9hFRitAfLMTn+R5aD5iAlS+j8vsnEkvKEPbbVFYprDHp+dE+yQCWU+IUsZdtN4ZJJhL7jPR7w4tgTYANRgaKUDil0H4BfQBqGSId9G86rXhd1+s/whFrnzATiaGy/1fOw4xSRF6+729BPEWSKyAiOOX6LIcWkuIocgDSmyPl4fp0LTilkcWoRtf0uU1RYLUhMfv/tz5IZCKxz9hBvgIdEJs8l2/dYXZyps9cAIXkigciw6inA6SfKeoKIu0tW1kd3b+PQbQeOPckY3OyjMt9JvQKiz6JLW4epbBW+OxXvspdm+dvtxsc7WOdUgplTDpAd58JdQ7EY9BJ6j0vn56jrbZZCrpeOavbGDKZJbHPiFJ979MTDQuRIEr33cNRiRAEOcwgEYJdIjQBMuhwTqBncrg+daVvH09G32T9JPZ5fa4XQ9LfjeO8HMUjJ/C9HO3a4O1YlFKoPX7KKqUol8uMV8fJqwVk1gO3dX+IfD6/fA4DW0Hm3GLn4M2J45j5+flD8/0fhvWZ7O4zDtV3ImSsc4e6d2NsfKw3+PH3vAJW+rOEsnkbwycTiX0m0n7fyUKxd08kLBr6cQIeIKz2SGRwN1jsFZC+hhgp4oegk/hek4nEPhMr03f9UujllyMaUZ+Vjg5FnES4fmOPu4hFI/0kVEk6hWuJxPjYPg2QMLMkhk4mEvtMoj1cn19D6BeW+zYKCvppIKMc3VYLewCMDjFe3xWaiblnOVilcf1MOlPQNvuZWfpgkonEPhMqH+v5W+YxOJdmEy7d6z2To790AM1krcnt+QXUoNPChkyiDLbfqtcV4U6nNIneervhUHS8rG5j2GQisc+I1vT6yBAUX6el1ks+CWX68vaLUvS8PFOdmG10vRsqTulNO1hvuE57JH1sU5xzdM2AA5gztiQTiQNARB9PSaWJTLDshwiVQfTWfgYRSLyAZhiT2O2FQJ1ALT9O19/ZU9pp0/fWaiVWmb4siRifSGUiMWyyfhIHYL0/HUC06cuxwHwYL7/v4+PHYMbAFslJTivmegnX7kxyvCW8Y8BsRwDxPF6uXOSRzgRPxDcHWytCs9lk3s2TtyG9pL/P73a7y39rYCO6fcSJlVJUq1W8/Oih+v4P+vrMkjgAeLa75WscHvGKIi2L6StTU5Qh1D5OhNt37uKSZOC05Z413C4cZzJ/ZLDZpffhlCZRgxdfpT4Jf+tcTaOylOxdIBOJfabcW6Dca255w1uliVbcYNZ4fdkEqc8jDQta7Q08DAgNUyNHaZkR5nLj7KTfdioSg6eHC4oQb8ur1ThLkGwtuBmDkYnEfuIcZ2ffxPQx8TJWhu4Kz71THgn9OPNY3qdH2ke8Qb9yxeXyOVCKul+h14f/ZMNjQZEYM3BFqlsUOtnClPAl4dzMm9s+voz1yURin9DiOFu7zIXZ19B9ZFN19MiqkmmrNYkfbHnDRY4dDavp4DGVS/evXZOj7o9u26R3ShOqYOD1gqLhlxCzxeXq4HztDR6fepXAbeHkyeibLId1j9HOcjSu8/yNb3K6foN83OtjkeJu4djaHIM+SiMjk9+WiQ+AgoZXprOiM9TdwgnOhLPbez+gt83+k9PBOLGoLS9YzwrP3nqR44VxrpTOc6Nwkq6XJVjthEwkdhkjlsDFlJI2p7vTnGvf4Vhcw7f9Rxm6+FwunRv8w7Ui9HPLZeWxMoPFNgRm89VVuQ1T+SMkKLxt+ia62xSJBb/MZOEUF7p3Np3DoUQIiHm0M8Uj4TQtl+NW6TRXy2eZ8yrEXm77ovmQkonELqBdwtGwxoneHCe704zZBuWoRSAWNWBL+0TDN8aeoRGUV/9CpK+ch1DnsIs3udMGGcBxaXHMB2Orfrbgl+mYPJWk0/f7rKTlDTYAeAnRmq+PvZ3j0RxF159zUlmhTI9nWle52LpC0y9TD8aYzB+lE1xgYWQd6yxjDVk/iWGsF0EhVJI2F1q3udi8wljSSjMcd1BX5UQxUX2MyXPvZvy+TML29C38cOutii4UGT9yBIBi5KPv6r4bQyVeARk/xfjovXPhJUWi+hg0+hOJlf0kALyCwk4pzBaWSGFkZM134BjnDa/H8ze/hJGkf8EV8FGMRy3GoxaPtW9h579BU5W4PHqey6WzLHilVRbTobr+dnl9ZklsE08SSkmX8ajOid4sJ3qzHAnr+Et3oDDgUI0VKOj5AbeqT3Lp1LtWFTstUY7beCbZ/IYXoRmMbvMgIApyhP7qTtXOeCwEZcaVQm9j0E/PH6Htl6hEjU3PTy5sp+mi91lLN8afxDjLE3deoux62zvHklbZV2nx7tqrvLP2BnO5KncKJ7lTOM5M/sg23vTBJROJbaCd5cnGVZ5o3WYsrOGToEUwS53oFGD0YMN5RRBRdMXjauUcd86+m2auilun1kGJcKY7idnKTBGoF48O8qetIiS/qmQbwKFpFMZxCvQ2btDYy7FQOEIlarLhHe6Eo+075JMuvftEyhqfy8ffwauM8bbWVZ5sXqWUdNCi0vOuSIVlgAhKgHAqqXF8ocazzcs0TY7r7nlujl8kNlnpeSYS28BpwxuVJ7hUeRztHDkXk3chvsTkbETOJVQKObQ4PJew3s3Q6aTmukMRa49I+TSDIvVglFD5jOc3NhePtCa40LmFcps3wu34OWrF49v6G5WCXlAkun+GhVJ08lViFeARbuu9J6rnObNwfdP4ezla4NzsJd46+c41QilK0/aLvDT2LC9Xn6EUt8jZkJyL0CLkJKZc2Dyi0W631/wsMR4xHkoJJW+EIO5lIkEmEttGlMYC1hhi49Ni9RNvp3vC9dBiOVW7xrO3XqTYa24+ElTBdOX8Gkugb5Sima+SrDOvo+2XiJVHYZsiMTl6lrYKKMvG6z3reHriJXJJh0snnicMiuu+LlaG2jpbqh3vycc2X/8wkYnEQUYE38UESY9qZ5bHpl/nePNm2rVuiyBF1ytw/djTq8xuZS19ey21olkYX9ds7+aK9EyOSrL2adwPoV/gVvkRnm5cTrcJ66BEyNmYp6df5tzMJSbHznFr7AkWRo6s8ZNk7C6ZSBwwfBtRsR0enZtlrDXNaK9GMV6g0Gni9dk0xhq4Pf448yOrtxq+DTF9tqiyztHIre/0jEyeBb/E8Wi+L8fh/TIgSvPt4nkebU9S3kpoHBTocWH2Eo/OX6FZqDJfPM4lc4zJ3BGirH/ErpOJxB6jkNRXIRatwE8iKnGDE2GNk71pqtECJddJv5iVN3SffrgEmAmO88apd68ZdzcSNfG2qklf/KyuHqFVqK77a1GKycIxLnZvsVVfPE8sQbRWCCbzR3l19CLvqb2G10eLfQDPJYy1ZxnrzPK4hpopc634KDcKp2gG6RbIoUBpjEsAhSi1+LOsOnS7ZP0k9mC9wTHmehyXDkfoUiSiEPgYl5DrTFCYvYsnNhWCbYZNRSt6Js/1o2/j2yfeyUSzC6zOo3h8/nbfxTpTuSNMNjrA+vkQ40fPkcx8Y8vMSy0J5dpN5r2Tq9cfOcKd8ffhl0Z5cuobFHvNLXMnlhHAwphtMha/zrO11+nlK/T8IqHJ40pjyLRGAaH2mFN57qoyc6qwnFh2mK6f/V6fWRK7SE4SHpc673AzVL0Yow1Ym17kSw/PUgUCH+YmIOqtY5sv/2sRde81Kv1XT/lMjJ7jjVPfSbOwlCG5OivRuITHF66i+mnNrRSXi49s+pL6yFG6folysnm+gxbhQucOX0/atLzVzkenDFePv507Yxd4auplzs68SXHJmbkUPl7z968+ToBAKwJfU/DBC0CZ+4RNa6zMMpHk+ap3iim1vhM0Y30ykdglfLGckRYjEnNVVXFWrfIZjoyscL7lgdITqE4DZx2+i4i7HWSxWV3OxigcVntEyiCiMOUxel5AOz9OI1+lu4H3H9L6kefrbzC6STRhJS1/hDsjJzd9jdMed8cu8OTst7bMfMwnIR+a+hKfOf5dNP21xxn6I3zrkffz5snnqXRrlLp1pDlPPgkJJEqtrPvQIxWsUjg0ycgo5IqsnJi4FGIGYNFI0xpOuRbRNvpsPsxkIrFLxMpwTY1yldF1H4TjI/eZewooL/1PoTZfu/dz55athvS3wtj4kb722Voc76i/xbML3+47jXmyep6wj9DpraMXOVd7k7zbWnyOh/P87ekXeeHYe6hvkAUaeQVmywVmy6eZN3Oo5Y6ea497bPxI+mO1/jzV+XB9c3tp7nAW4OyfTCR2keXhOevdy+vd4OreOrfy92uKkLZ2xOVsyJGwxtuaVznfuoXf536/kxvhdvVx+uiDQzNfZbbyCKdnr6K3iLxoEU73ZvnI5Au8Xr5Io/A0rVwFqze4BFUqERu9qyi9+rzefzo2OD/LGbEZfZOJxAOEcpZS2OCR+jWOzl1lLKyTH6T5ioKJ0fPMlU5Avbnly2MTcG3sKY4175CL+uiLAYzGbd4790167cvUC8eYKj/CRPUsnVzlUM85fZDJROIQo11CYGMKUZOjrSlO168x3r6L79zAURInsDBylNdPvwe7TpblRkxWz3K583aemv4GXp/T0Y2CYtiiGLU4s3CN8LZHvXySyeo5pkun6AYltEtwG1kZGXtK9i0cJkQo2h7VeIHzE9cZ7c5Q7DUoRgv4UYzRsq0QqhXF3Ogpvn72A3TXcSxuekhKc+nku0Dg4szLBEkf+5Tlxel/ciScaN7mWP02US6g41eZ03lmcuNM5o9R98tZ0tQ+kvWTOKjrx8bQCNolFHsLnGjf5VTtGqOdWfISp4/++yKjA1sPpF23b+VP8aXq87S6QHd+W8c/m7/A3Jji3fVXyCU9TB/TxVYhafQhH0fk42nGgYudmyDQyFWYLZ7m7pHHqefHCb08s/Nzmw5M3vfv7wFan1kSBwiFMB4ucDSqcbzzFqW4SblToxQu3GvsutNxnovu/abOc6d0iqsjj3C3cIJkh6a90x6vlx9nKn+MC+1bXIhmqLamMWplvsOgb5r+p9JrUAkbnJt5kzBfpJUfZYIStXyVthlhwS/T8EayrMpdIhOJA0IxbvO++Vd4rHULbSQNVwroxbtroP4u9yVbLb1Bx8szXzzFnbHHeF0qhHrwztWbf65iLhhlLhjlWrXCeGeWR+ff4tjCHUZ782i9dDwrrKB+/y5JW3QU4zbFuM0xFNJSYITYKV6tvI1vVJ9et2o1Y2dkInEA0OK40LmDxnF95DRoRRCs3YNrBC3pnj+O76t3UIrEaUQpQuVjRkpEfoHYy9H2inTyFXpBkVgH6Wu2Uao+CKI95konmSudxLiYIAkphk1G4ib5qItt1QhsTF5itLMY5VYFPH1/9c3ulMatGKMeRaujNqWkzVjUyLpK7QKZSBwAnNK8UXmcNyqPL/9sbGxszevUihTlWq225vdpDkCaXzA2Pr6tCd67gdU+3cCnG5SAUwDU5ufS1DBxiz1CV7Pm71ercybu//tF5MD8vQ8amUgcEOx9bd63Cv9t5UM46DfMcqKUWn+ilzWbbxvuP19ZgtTucbCvpIyMjH0nE4mMjIxNyfpJZOuz9dn6TddnlkRGRsamZCKRkZGxKZlIZGRkbEomEhkZGZuSiURGRsamZCKRkZGxKf8/1mnfHi2Kku0AAAAASUVORK5CYII=;" vertex="1" parent="1">
          <mxGeometry x="215.82" y="474" width="103.37" height="110" as="geometry" />
        </mxCell>
        <mxCell id="b_Wbd-ZXqIB6Z8tAtHYO-11" style="edgeStyle=orthogonalEdgeStyle;rounded=0;orthogonalLoop=1;jettySize=auto;html=1;entryX=0.004;entryY=0.44;entryDx=0;entryDy=0;entryPerimeter=0;" edge="1" parent="1" source="b_Wbd-ZXqIB6Z8tAtHYO-6" target="b_Wbd-ZXqIB6Z8tAtHYO-7">
          <mxGeometry relative="1" as="geometry">
            <Array as="points">
              <mxPoint x="438.17" y="264" />
              <mxPoint x="438.17" y="264" />
              <mxPoint x="438.17" y="184" />
            </Array>
          </mxGeometry>
        </mxCell>
        <mxCell id="b_Wbd-ZXqIB6Z8tAtHYO-12" style="edgeStyle=orthogonalEdgeStyle;rounded=0;orthogonalLoop=1;jettySize=auto;html=1;" edge="1" parent="1" source="b_Wbd-ZXqIB6Z8tAtHYO-6" target="b_Wbd-ZXqIB6Z8tAtHYO-1">
          <mxGeometry relative="1" as="geometry" />
        </mxCell>
        <mxCell id="b_Wbd-ZXqIB6Z8tAtHYO-6" value="" style="shape=image;verticalLabelPosition=bottom;labelBackgroundColor=default;verticalAlign=top;aspect=fixed;imageAspect=0;image=data:image/png,iVBORw0KGgoAAAANSUhEUgAAAToAAACgCAMAAACrFlD/AAAAsVBMVEX///8eiP8Agf95uP8AgP8Ag/+qzv8Xhv9ETlmXwv91tv9IUVz6/f/o6eqUmZ5JUlxwtP9OV2G7v8Itj//09PW00//g7v/t9f+ytbl6gIdjanPZ291aYmvm8f9urP/FyMrB2//X6P89SFOrr7Nipv/0+f9udHxUn//L4f/DxciYnaKFipA4lP+92f+hzP/f4OKLvP9Fmf9Xof92sP+TwP+Xx//t7e4zP0zQ0tR+hIuLkJbbUj2+AAANH0lEQVR4nO1dCXeiyhIGBEFBEcEtYiLua1yijuP//2GvqrpRNpOZe899mtDfORMEGmg/q2vrakaSBAQEBAQEBAQEBAQEBH42rEd34DvCCo6j3cpd7UalmSDwL9A7uIqm67oM/zRF3vYe3aHvAmurajJBZ381dSsk708QrDTiS9E0XYO/yJ/mBo/u1jdAQwGudGV3DMawNw6OU3ag8eiOPT2KQJSujqJCFryqwJ36/rA+fQ+sVbQNSQnruyB46vohPfouCNCqZui1HnCna0LffQJkyG1lnBjjmdX/vT/fByUNRmuTPjYbjRiFPfBUtNJDevUd0AJ6lCJ93CqKoh+j3lxDBVqzBFIAcAShm7JPKrl2btQy7IXY3QfoM5WZgh3aWWBP3TevZwNFlt1Hde3JAdxwS2C5YC1GCkleYRyeBz6V2cN699R418IRCdSBgK1dDMI0OfTyYDxrx8d175nxCsqMSRWjTrIOGoazyo6N4hlI5eiRHXxewIDUmAnl1IFLMqIAlgUSY1CAuwf274kBCk5m7siVOhA1zKPoLh2H88IrzoIFzHC+ItSBCkRLS4bWDTkUiOMedQ1B3ZdYZQ5YVxED9ktkmIlm1Ey0hJm4hw/w2/r0KXROtpRdV6YspEDn5PWB/XtiFIG6A31i1DVcjaYlQpe4BOdFqjgTsUBMdqcsELtNhmEgJrKd2VhB+M/CiZ3OZhKVkQj//wgwYrkdKKo6JZ36kbNTXYSwdzHGVCfTZiVdUeRYdq6owlmR6ryHo3KdvOmt1zGecMJHEUJ3HytUcFkVJph7F07dZwjAkdPltBkNcEJMb2ZcIRCij1PYWjFxtIiMKv1HdOgboYE5JmUfTaTP9lhMIYpOvsRMp+qcVWnWGlvj1qy0ojBW7z+6Y98AzR1xReVh4KKwIrGdCCP+CCXG1600UTk8ukvfBq3jirGnY3HiqiQ84b9Bs7HH0p3RR0O4JH8NjGg/sk7MDqPdavp6/Ez9zUrQBsvf/6POPTduyYD4YVfF4nYYyuruXrFicXVts8qjT1NEDy+p5YKdcjMgujrK0oLMRF/bTPO3dACpS8YVfY38Fk2TWWm7Jqc1ITmGMm9DDObOsUHqErnNGYUVq2PQslqzLebf9VSyADOisuaWsE1Qoja5C36JulhFXY/E6SqI1hYDXnccuwqrP/VbStQ6KPdqbH8wimzlSWS0TXG0Rm1mAwatVo5dtQfjwufVGNbYJmcTaURddERiSawW9zYaMDpjUz19VZYTbfrQRs2Xk0IWFmf+Q001TVTEIqevYAyizt8I2myjbSxJKmh5Ky5Dv26v31agNJVrYQVivFdXY6mJZvh2sAfXyDflZ41Ut0cZZi1X2g5ntI9rWvc07VuUyYsImLXTZKVExdmRKtm1EmsDig8zB1jzmKulPkWqj2WenOJ+FGEsUqK4iboNmaOlT1gScOg1GXofvE2P2Nxjm0a0rCAnYNRhbCCTiwsUKk00FuqHZE2BFQWV2hpHrBICl5IFuNJMBeU2wjYFiYpVEnb4h6MYVmW/y4rOMnfamC2f+CB5QlakGV91fIXaY8bj9RWZo9HbVOO25MfjSh1I2ohLXQ/X8ci0poKxAgMad0PwKkZcsYI7nLAgt1KHGAfrKa/WGZGcceZYfuU1xEpmRuOV2mjcJUHjsU0/4OciRp0UWVaBo/UaH7zGLOz1GuQ3ZE4qw9Fc5Z6S1AUqryGz9mQFCFimot58tua1zmykqnt+EEvOlFxlAJLUWSsQMOae9a9e2gH95kgjLKotJtrcyZn+YCSpQxdOTuRAArS0/ehFGHLEJawJBkPN1XhNU2dh4ckuWv3fwiP72FW0Wjuahxqv8lfok6JOmmFaZHWTqRnl5uIyNkPfZXVLpszy+NaANHXSFv017YOvtkMrqqeG4jHW5hXdwZwN10zqJMwLy5rqTvc7WY3njK8oKdc2LmuTu7L3LOooL8zDBxQuOSuF2aCloGF0oeWw0CeTOqm3h5AsrKl4HWdcB9ZjFGmTOd/4w5FNHTgbh6muqIq8P96fYA3bTEu5coVD3KMOYI1b46+WKFrj3pdtfio+oU7gcwjq/jEEdf8Yn1L3J1osr5qOZh0yJ2NaxdeVrLm7j8Z9bqzg/VAoFw7FIJf8zbSstPi4oPN3x2qJRWQ3WOtyrVwuFArlcq3Q/297+ZTAtOU+ebAvh+EEFaSssuL6ZqFWQJTpby2Hr+Yd48xMIlzgbxjT3JWrsVK79NT0rAacgdgVDvQX/uQsbyJRjUlicVMRmVNHayS01dhhjVjqBVkBilyNv192dqS93HFXvL7OjoMqEyNv8lzTEvf4eGyhnBVubQJUeuW8xbEtLSF2mO91o0xh7asWL2I6lIG5KFM92C/nbiEtVndFijbflVT9K879x2rncLiW422acKiWtyxAC4XqNmRvs103bBO1c8dyoZa0HI08il0DJyNG3KsN1Iw3TtCbUW+COUaHJOkFW+ioZGf2fjA+cBJ/xwYgBmbp8odRbPZ/ViuU0yn393IOjSwVQOgyvSYGaGQkzYgGa0b6q8jfQmm1EI1MkpDQXJUmMtCr6zX5Y93E+k2Uv2Ot1sBRWKshkX0mi71yDQHjtZYOHsBQlPM2KYY4qnxhMa+vk0DpH4ArPjRnrEz2nUVd6P+mfThsm7tZMUTAl3zxskPpvVbrw+ZQo6HJpW4N8T5CSF0c/RFfx850XUBKzgqIo3f+erH1O+IgdF0SrcbHfiV/bWEDYWGz0FQzXtXZwtLYL/y6Mfp1uUx5XoHRRFLbl7X4mxQhmkiNzVxGE3EUlVTN0jq5/oti2HjAGuQxhk0CMydyKnMSX3VYwsxJtE0Ph2vOhS58WdZtPL6T1xL341o0JRELzYDL3EWwKRQpLzyl/zqmV6T/qi21XJNliQ8zliU+0F7ehyuiyCYkFN1la//1jCoxlhfGoIz+gAzm2jG5YubyGTGKLpRdljz1trXCDbVt3rLr92BtZXpPFsqem/Z+GfoFjMtA3sq1Qr7WX3+OcaM8deXVdLv+xM1tNo7bwvYo3mqURr6DAwEBAQEBAQEBAQEBAQEBAQEBAQEBAQEBAYFnRmXerm+ue+2Xc7qJt6nQ9sS3EUxePrv1ZvPJ2RuGL3/W7rngXUwD0PH4/vDXPDy1qYYf64MLbdt8G8GL/cnNfdvxMk90q7EfqPqr+xddfhZMzM7b5rwYhD/7eXH9FufBgn+qm5w6u5q8/sW5f++u7dsZMgyYD9qx3UVKmp8fC3tJ225G37vGv6RuYWZcQJgb7czj3wgnxzlFditdABtilXO37Vy65zOKTZy6LpOkzRlbAnWb4fAt8+4vvuX7t5vXoZ3Hbj20F3DrbvKhePP2sM1HAJw/tYd173ZmOI/29rGY253o7uLXwDSYghvCR98ZADykjglPnah7MejbTAyU1Be/PgBd+ZKh0yog0VUjHP9Vc2AbA/yl8Cm+DXc26cQSdgdhq4th2AZ7muX4Z7iz7XvhGdMcDJ7GnizsRXQXLOjCZBLkVSpzs3qqVJCfur0EY7mpDIm6CdP9HYdR59S90yL+EzC0jbr0Fg76pdnpet55UsFbn9r2kN8azXDlEhK8MDsbbzMxhrjj+/6bV+mwLtaN3xXP61afhrqLndQ5Q+M6+CK6znHQDBuOk6bOoUYTI20jO2YFNAJzXs7GhB1kZT0JXbfgV3sm3RrUCG58BwdAxaErLxkPeCh+23UJrepiEX6VCHXnCHWTIWKZQZ1NctA2h8l7n+g7d9j5iz2PnrtD3ZvNdOpvE9Wpz57j+0h3lXr6RFiS1A0HthMOuGzqYrouIXW0czZTHl/dxMuHJpE0sWMm/A514Q+wMJEnnwnsC1F3Np1l/WlGq4S6Dvvqnc72b37kDnVRC5ugjs50uZMTwdIZgn1usx/lJWbJ71HHeebbGHXS2wR8d/95fJo6/8abf0HdHanzQD+CFTUc26Nr/kTqbtSlpA5wOlcd42mG7cZh/fo76mzmnER1XT2l685m54xYkpZbxsOKO9TNuQe9ZLouQZ2EyvC39Cz4TSMWqMvQdRszHIRx6pYmftGKw6WObtAxkhFX1WQCwr7tmxHzXm6/CiGk7mSQB+0xSc2grmJkOEEPQsWxh57kDRl1ngdjZW55zAmFITc/0ec4dW2740mViR/6dWfU75PknX1uGDyHfNqJfQFtd7rwFIzpnz32GHxa1Tyzh17MC/RmyYQvRl0VowrvYqQM+ePQ9Q3bMQ0fheZtYJq2Y5sGd+7rtmEMMHSIZ04837b9wbBD0YTvDAe+b/jJGLg7CLNRkwHKsdcxTGg34NZiCDp/4LB74kNN0/h1olbOi2N0kCyIJqgp81E6EIG82MbzjFfEvLqsskCxUg/Bv6D3Bp9hu6nzsJVtveGyepbe6KJ5XTpflsNUHBZeAiTW2Q9xXiwvwyvDJ7j1nDUM4YW94SqDnccn4DPPi8tykZ2HERAQEBAQEBAQEBAQEBD4yfgfLhENtFM5ToYAAAAASUVORK5CYII=;" vertex="1" parent="1">
          <mxGeometry x="375.84" y="314" width="157" height="80" as="geometry" />
        </mxCell>
        <mxCell id="b_Wbd-ZXqIB6Z8tAtHYO-7" value="" style="shape=image;verticalLabelPosition=bottom;labelBackgroundColor=default;verticalAlign=top;aspect=fixed;imageAspect=0;image=data:image/png,iVBORw0KGgoAAAANSUhEUgAAAVsAAACRCAMAAABaFeu5AAAAZlBMVEUNnOz///+XzfYAmuwAl+sAluvg8Pybz/YAkOoAlOvp8/1Eq++u1vez2fhXsfCiz/Uto+17wfTz+f5ptvHU6vs4p+6FxvWn0/fu9v273fnG4vrb7PvM5fri8f1Sr/CRyfVyvfNruvKcyYByAAAJ/ElEQVR4nO2c64KiuhKFkQoygGK4KhdB3/8lD7lBArEFdM7sPbu+H9M0gQCLolJVSY/jIAiCIAiCIAiCIAiCIAiCIAiCIAiCIAiCIAiCIAiCIAiCIAiCIAiCIAiC/MWA4k/fyN8HxPeGcyxR3S8D2UFyIX/6Xv42Jm1d1PbLoLa/D9T294Ha/j4mbX3U9stAnN44aY8x2CcAkUxbAL8kaLafAOVF0DvZVWxdaaG2MrTbD/Aa6VpvcFFetvgxd0C51+LlUsYQ3KW2yzgBitj7E/f5b2SrtqTBwGwtG7Ul/bC3Rrewiq12y3e3KO4atmnLzZZZ7jq3sPcV/CWvblucENxlQ7lCXACH7FGJnbfjtK/yybTAOLMAXSaInUJuZQ5VW4VjzECAo0Q/rLh40dzOe26xyG/n74gLThTt+whoV+xWN5Z0EKkth6qd0xYdD4z4vcajtu+DBdIy+95+h4R5qeQrbgFK30/2nFi4vt/tvAWaSomaXz/7W0cdWBF+r6O29+DdjBph3maPAYYWZ7SPwnddn27XCB7DiXvns3ZqS0aXfDjQ6JkM1hy8FOEfoG20V9vE/aPaqtMurwYe1HabT3gstB14UYhEbTdp61CbtoeH9S5Q223aBjeLtHe0Wx1NW5U7hOAvtb2MAa3Qloz6vzXb/6q2QK8nzrn3+rPY9CGTW2caqa3MUQfygBMILKWtjZojEG+A5WMzbWFqWdyObJFNC22Jp/1m60ceMOtH05YFi4uIcRlAqj2TtpsWbwG7vBeoSZtf3rQ17gymLW/aCgKaXZY+4ab37tHynDd57XYemNoS53lq87y9ZjCvUZDs2uZNe3rIFHmmLaFVM2Yqw8nJuW2a+pp50wNXzTCe8n6aPD+XYyomtYXoUfZ9mWRUeyNQPJ6znC16ZKa24HT8zEe3JruD7n7cic3VDq5E++QGFcb9x+yXpi2Qi/JCh1sfGK+jHDtOfW4gprZews5MVNJ9nV5qIj8Ywq6aBeV4hTQGTVun6/3h54DvltPd0iH1Kg1tCn/I4mDSdjAHV5w5/Pt8L66WWX2Fq+YQPDNCqyZtSZTqLffpCYE2eksaDerq2hIqxlrp7jOjn1z0A6yAVB/1bjRt3VIIK1GyQ8x116XhezRtaa+d6fdv/bYqEn6Fo081aS2JhdSWPOe7Va4ORbpsmbQFokyBmw1JZgenvKAC98McR9NWSOMr25Xivte2H0+UZ0ZvxP2WtmWWRY5nDDhShjSv2sl9MG3HCk9T13ddlMFqpbRhXR1TdYLSFkgkA8TbQ39FaVPVoTyPmtoOV2D9XImhre8mWRxnpZC5WKmtsNZn3MWZNGD6f9H27s0HT4iECqXDhuq4nrQFGSNfimBoKs5CBH4yEQ6hilgL5TGgO2oLY8BdUTLZeNrTYIgHOnEFNgMyanulbJymj0wfywaBkmEMYxTcFMsN2sYODzAGl+2+j8q+pO2yBBhwf5dTOXZ55aitx9W8RZ5siblErLgO4htXI77X5WntqLGMdNITh5k4k3A1j+oKgbjC4Cyktqm8gmPGYK4/DkPg9PzbXqttP9ZwgfaaP3kBzF3WLsJFSCK++/u03+ultrKeHo3+g8Sqi4B/2dkUAhMeJHFtPRUQnFSfBX9F2hW4uMfBHoW2lmK2GMu0/ZTJx3OdNdpqDhYoF/snafXq9gcsMzEeBx30ZTjCkAdtuQS95pqFIccg3Mh5sdyBaVvJYT/sxgD5Il7ENGMSVEJSoa2tWM9jMN3YoFQKrdDW+DghY63Fj+Laqy3baJYWErAPvdFlEjWzM/HYp5wawwC/B58Q7mCXo284Xcmfvm9g41oYRd1I9GSHlIRrm9oeNprrwRVyeab2VlvhO8ZWbvI/r+EK5kHPDpZuR3z4hukASG3Zk+eGcfJdtcdtPVyam6Ztop1nz12GyJdr29oKECIvW+i3TlvX7Iv0c1Ne4NX2W9zAybJoiZuieWWScm35y7waT85HpZx4bEKtXXamaXt4jsmu88IoaqFt9VpbsO1ZEd+aPa6o33weKIS2bvlA87Bqe7Br2wDXNn+lbdvyH8rfvtRW2u11nbbdem1nOq6pjX3scG2ByEuf4BLpAPSj+ZqI1vO4T1j2xrRNS88RMdg4/Nt9AsuSv6/tk7nlmbble22DZYa4id72EMKNGzYoFvY/QIxlxsH89Z6IGPntY9klGEYPbsCqGMTHsls2h8r4dp+2epuubayGPK3ZVeHbaz6s1lT2FaLCjetT+gE3u0I6IX0djghdnwAd+2mPwXjOKyo8jdhLTvwsD0wcZ5+2ok0PBbixCm2XwZt11wKwlLfXk79YhSSsVAvOvEQcLq001UpfkdihYpYpd5A17rFWI7IMubJPnKZlLeDJfG6f3fJkwLBD9tFLbZ1FpsBdwruKgn1eZiWWiEkiZtJqFY8Got7I4kHuVg/3MRsWZQEmnjDptJMaEVodXU+vg8nqjCww8sEtBNVP17bxVGPcbLdCykksEAmyfF3chp/aW+deYsVqn90hrjVEkLcmbGxI/gkhniySyyGMbw+jE2uRBRjRkyd8/4nwJv46EqLXb2VZ4sL6gUL08xD9sMRDpCT7tBU+tVfVByhE4Uv+xq3af46TPPzgN2kZg1hXGazAEi9pvcrPIa1PlaqyyBtTU5v1+dzKTeGZpVzDZ38+1+KNXw1tnUCUFbi7VuXb4Qqqn3i/v3UcUaCN+fuhD1/XVllxGbEYCIqE/7bmL2vIvvyhelNiO82Ov6mnWtS0Rx9L4vk3FJvzDtKjiHdB/NnB4Qd2yxbUieJ3X5Zq1mfUdnBHoj7Zl0nZy1LlCmmHtxQetmMPvnRxzbQknx5qNhczFWAcEhkhYcpEN7QF4WbF3JCYOxtpik/8rfzQTUZtZYyrtTzWKMtmJDe73Hv8fsUA6drx+NBY/UzoedLvqlcowZnmjlNeBOdi6gM48zAyaCfF9MndXNkP/wytRkUX2horGyHSZsT8MjMTBrPVfRN+6SpsFPe0aokwkMhtm/CYn7P5CjxSlHVzvzdVQmd5OqGPirXUSSFaaBvqyxOA1uF1+gSKfuinyc/PaVE6be8X++0li/W3w57n1LWTlb6gjB06eAajIDm19s8NK0hI96KsZCXv3hutvB/CAipCLKslgLWAZ7lH0TJFzmT2Ysw1+oQsrvB6EX+xGNoLo4YODu3iLI4ot53CjF+BtQ65X0e3rdEHp3mvqeD+3PZnC68P3tTNrivs6u0n4fb9l0jeuopYE9tMDfkZ4lTvhE2vRYDK7sKj1x/GtPCakT/+x0j/Yghkp/tC3/TWnJLCuuYQ2cAwstMs8atW/Hdr9ckts8JBXb8FAOFLV/nyVRbdoLAIgiAIgiAIgiAIgiAIgiAIgiAIgiAIgiAIgiAIgiAIgiAIgiAIgiAIgiAIsob/AXGqmaA8ivUjAAAAAElFTkSuQmCC;" vertex="1" parent="1">
          <mxGeometry x="519.17" y="144" width="215.38" height="90" as="geometry" />
        </mxCell>
        <mxCell id="b_Wbd-ZXqIB6Z8tAtHYO-9" style="edgeStyle=orthogonalEdgeStyle;rounded=0;orthogonalLoop=1;jettySize=auto;html=1;" edge="1" parent="1" target="b_Wbd-ZXqIB6Z8tAtHYO-1">
          <mxGeometry relative="1" as="geometry">
            <mxPoint x="267.5033333333335" y="244.0000000000001" as="sourcePoint" />
          </mxGeometry>
        </mxCell>
        <mxCell id="b_Wbd-ZXqIB6Z8tAtHYO-8" value="" style="shape=image;verticalLabelPosition=bottom;labelBackgroundColor=default;verticalAlign=top;aspect=fixed;imageAspect=0;image=data:image/png,iVBORw0KGgoAAAANSUhEUgAAAMMAAABRCAYAAABv0RLiAAAgAElEQVR4nOy9ebxlVXXv+x1zzrXWbk5fdaqKaqkqKKpoi0agEJEgGIhGc+1ic4lKEuPLTdQX3/Vj8+57ibnvkfc07ybPmHxMqyHq1YAdiqgIAhEFESyqqCqgqqi+PX2zm7XmnOP9sfY+dVB8n4sBCvLJ+HzOZ1etffY+a801R/cbvzGWTE1NKf8u/y7/Lrjn+g/Iz3tDf/67Ks+Hfnb/xvxzkKd5X3/O+y9eES2vRAEViD+13nNXqSeu1+iJ4937o50v086xE9+iCIKJ9rm5gOdIzPPyV/Rpfp52Y70QNpvws+fxb8t5CqVCACiKCnM/P/1781/njnd+WZj3IX36lXsxyXPuGX6+A3ixbLAX8+19elE54RUQmVOM+Uoi8z0B5e+pypxHEQTi0ymMzv2NKPE5vpJnV55zZfh3eeGJAmrKLQ1P3fjlv08cVynfC90D5TvzlOCEZ5h/HFX4d2X418gLxVv89Hn82/IOURQVRVTmFEHmhTkKoNJ57RwkzsvlTGeFBEE7n5G5I+XHXij38n9cXgDK8HSLdrI231xC829eunv8RGgk8yAD+alboBhimV/M//Q8p6DSVYuuUijmRbaULwBlmCfS8a4n+zzmpGPltGMHBURk7v8vZpmf7J7IDYQ4P59AQcstbhAkKqaz6VW1XAvoaJM+ZW2k8xe6v/dikJOiDN0FKhdJiLGMLY0Ynj/L/D96gwRjStAtRj93Y7uvL0bF6O5z9Gdh1oASUMQYDKAxYgENkNiEECJGADFoVES6XkIgRpRunmBKgLVzn1UVVcUY84Jds+ccWu0uxvwFOaEEiioYsYAhRkXk+UF7T8jPYL7zNnokxkgMAY2RrqUzxhBjfFFZvZ8WmfdT5gellY8CNrGgEQ0eEwNWFbGWRlEQrcGLEMUQjUGNJWIoioBiMSYFSRBT2tkTRq+UF6oiwPMBreoJ9/nTG0fElO5UBIMSVdFyzz1P8vQ5gmp5E40xoGYuUhbinBK8qEUpIVXgKQGTAEaIwZNYg4ZI1VrwniCQpI6oAQVC8BgxRC09epJVKLzHh3JtYvQY89T7/kI3HM9LmBRjfIqFUO0uUvnenDudc1QnM5HtpIgKGrug+4mb2FXsrrvvXtuLS37e+WrnDiih1aLHJtBoMTM6ysEjB2kXbZIso39giIGhBST1OmITQoyE6EuvLhZEcNaU3qWzRt1Q84XsTZ+Hopsiprz4OBcmmbKIgyDWoqHjDkzpnk+2aBconB+yqRI14JyjKAqcOxEGvCjl6WyNgmjEqJJaizabbLn/R9z59a/TOHaAojWLSRzV3n4qvX2sWreOM84+l+Vr1tK3cJg8BKKJYC154cHaOQ/7QlaCrkhJ1DvhMOcs47wjnWiy868yyT2BIgiigtH5ENsJkK4gw5uUXEALxfo2VVvgrCHimPIZI1NtQiFk1ZQkgf46WEo+jCPHasBoBOkkaKKgBjBzhaFS4olssMOVkfm0gc6xKB18XDtYOyXuHsTgSfCSAYL30GzBTMvTzJv0VlOWDDjSMINLUhrtQLMQbK2OEUhUMXiMegxhbp266yodNVORn6E8lZi/QSXyXHvFLivAnChDd861pGYYDaQaGNu1k7/9808wumcfvfk0CZ4gQq4QbEKwCbkIWW8vp647g3VnnUXP4BDVnj6GFi1mYPEi0koVrKXQcm8g5T2bo4PI/DU6ueJUIhITjArlZiotsyCoOkQiQgHSRrGg1fICTERNwHtLKhmu8KixtE15Q1UCRdHk0Gwvjx6DB0fazO7dzaXL+nntZYswmuMl41u74W++sgONg2S9CbUKrByos2FFH+uWwWlDKcMZ1DUH2ybQJhqP0RoSEgxCCIoaIZo2iKfca6ViaLSkWkGCRW2bXKCQBGcLpIhkoYrRHJwwppa9Mwm7xoXdeyJ79jc4Ph45nE/TKKZZOVjh/a85lU1LBR8i460KX/v+Lp6Y6WH5smVcuERYtiBhYU9CrzRAAlEES8RoQKKnsJaAxWDnoTgRowkuZGBbqPjn9q53IVFiiSCJIYkBq0LQFGMV357kwK6fML5/O1kQVJQCUBMR41DvcVicKmZ8jCe/fxe7/uUOwJBVeqn09rH67A1suvIqVp+7kVCvk9sEFSHzgomlHvpOAdB0goOTWaxzcAITLoH0bmnFdGyFIFgEV76qwdOGGDEYalaIvknbWqLJaIvlWA5b9kQe2j7CQ08c5PCMYdRHzu8f550vX4OzgbZmPHE88vk797NtrB8bM8JIG2MiD0uLbz90mP6aZ/VwysWnL2LT+n5OW5pSMRmJaYBXnBTgBWscHjrmxkBMsAQg4gUKFGvARUNqFCgIhYJUaKYZR2czHt0L9z1+hM1PHufQmGe6WaVRJOSS4cWi0s++Cc/ye/az7NXLWVwv6K87Th3u54s/2s/XHzzO4qqwbEGN805fzEvP6uO0pVA30OvbWCkoTCdkDAGjjq7xKS1jwEhO4HkIE7uxgJZequTdddinUYkKVgxP7nyC2G6TahXBouUvoD6SmhRRQUPEGiU13bKcQFHQGh/jkfv+hR1btnDOpsv5lbe/nWRwiELiib3WPRnm1TVOorhulbAbHJWL0im9qwHtKoJgVLAYjJShitMUzWcRozQq/YxMK9t3T/DlH43zg92eQ61hcqmQJoZeEa654nTWLikVaVYHuO3+J9iyz9A0y3ChQeJqRDXMWMNo8OxvwNY9kbueHGPDw0e4+uxertq4mFOHB+hNW2iYJXMJMYYy+VYBLBKruFiAeEIC0QiRiCssTiIhNIkyyFSwPLTrMF972HPXY5b9sxliV2BjThBHqAAmIHmGREfbGO56dBcvWTvLr11SJ4uzbFq/iNO3J2zf2uZoq4cte5W798zyrc2jXLYu5ZXnDXHZ0ipGErxV0IARwYbuJiw3h6FApEA6+PxzKWXVWeZqzmXo2NkIpkx4HYKoQ4LBIBiTUHSKbgJoiIgarAgaPEhARDHW4aOgUUms4qemuf+O75KL4dW/cT3J0AJUDPEFERg9VZyoQTtsrJJp+FPVRwHVEmKMEoiSI6SoRlo6i0lSfNrH1kNw07f3c++2GcYbFdrJELm1oAkSFCeOvt4qkkV8IeQBDh0bod0axFYMUZU8OqJXXJjCOYsnwRhohYwdI5EnvzvD1384xWsuX8OrL61w2qCh1WiSKaQqtBKDiuA0lKGagRjAiYOgNE2LaC3eDfDIIcsX7zzK9x6d4nhRZ4YqIIQAQVwnL7Hg09ImSACN+EaLsWNjxKIKNhLTnKSSoRrx3oItKFR55LiyZ2Sce7ZOcM15S/nVSwc5czihXSiVJEU6OU+59jkqShRBn4c6y1P4SEInZ6Ljk0qAIwZDWutHTIYEg4aAiZ7gc4wVnLHEkGMMqBaIBIxzuMwy2/AkxqDeI95jE2HHD3/IurPP4uyXX4G6lCimDM27lA45QQs5WeI62dtck8eco+rQdUvf2HVtStAcNMHYhIjjQKvKnQ80+Oztj/HkdA8TZgkFipEMsFhKKzGpyl0PH+Qlq5eyoqegqsprrjyPHx05xI7xcSRNKWKE1IJJwQgaPQFBTJWGr9CKhtmJJp/+zgG27gz8xrWnc+nqFFO0qYUWgiFiCFJyaSBgrSGGgJiEmFY5mqd854ERbrnzINuPpEzbpbQwYAxJaoiFB5OVJdcoWBwqBYInjYGzVw9w5SUrcdIip8rjx9rs2DdCO9YxFmKiYBJyX2GEfkanW+z+3m627q3wjl86jQs39OEUjG1jNWIjlLVPIch8ksRzLWUAXCazc3ETIkqMijWWNevP5v6B7+HHJknIueJlF9HTkzI1Ncn09DQGQ7WSUa9VqPdVyep1jo9N8cMHHmFmto01QmqE6APtqWl2b9nC+osvwva5jmf4aeDm5HoL++EPfeQPS6sU5yEZBlGDUdNlmCDiUfGILRPTQhMOjCh/e0+Lv7hjhn2zy2jZIQIKaUCIOJ/iguBVKNKEg0cPsaS/n3OWWvqZYkmPZTz2smXPEWYkBRPBQdAq0SjYHKyDkJLEHpwE1DrGZZA9oykP7xinpxZYsdDSb6coTEIwCYUxOC1wWhBNwAPBZRweb/C5ew7xF3cX7Byt0XKDFOJRR5lqxAA40ARihkSL0UgScyqxzaK6412vWsamUydJpeDobJ3P3nmcu3e2mbU9YHIg74AzCdgKmtZpZ30cOA5bdkKvNSwfdrhaG6cFaVSMZqgkeJNwohb8HEo3RexaZlGk4xfKtKtUznqlwsiRwxw9uIe1qwbZ9JL1LF5cZ/myBaxcPszaU5exfOkCFg330d+fUatnzDZm2PHE40RVogouQoKUNI56jQ0XXYDr6yFKGW0YlXk0iOfTGPysuBLNCCdQJO0oAgaJWqJJJpL7JolzaGFoSR+Pjxs+cfsx7nxskjHtQ5MWlgQXDEGrBFFiEgkaMLFBGidYwCQHtu9gfMM6qv2Oahr4tYv6kFbCgfFZRtqBA+MNDh8PTBb9tNLh0ikZQzRtvEbECdAkaGD/VOATtx/j2OQCrn/pKfRWc5y2Sb0lEokuRaLiTQ+7RoS/+voo3320wXGWIlIBNYgpIJSu36rBxBwXG1g/zmDWZtVCwykDloGqZ/3qRbz8DEhjlVzhyOg0x47tph4trRAQ10NT63jNEGdQH8EXZY3C1nhypsknv3OQvZPD3HDNKZxSieRxlqqz+Ngu70aXKfccikrJIJIOzGmjlrBnRxGDKh5Ihhbwy296HWH2OBeu6iFLPWhBjBErYNTDXO2o/G5DIHWGdh5QkxClm2tCc2qavNGkinRoOA6jCrEDJJzkOoQrwawIRKTjERKTkjfbVLOUPJ/FplCpJhS5oNLL/inD//P5bdy6p488XQDWQAah2caaDBMTsiSShxFqfpRTFzo2bVzJNWevY2UKAzUw0kBjk3XDgXe/6jTyAOMeRppw4Cjct3WKO350kCnqNHxCQUK0SWnRUEziaLQzHp/I+Mxdx0hswut/qY8BmlQ0ouJoeQFx7JuwfOKWzdzx5ACjYRVGqkQRgi/ACUYsmXqkMUotTLJ2uMpVl65n47qE5QtgoAI9CWTSJg0NEpuSB2Hlkl7e9aaXcfUYPPTYFPfev4MjzSHaySnM5DmJc6BCkIQ2Su4Sdjb6+OcfjJIEz2//6gqGswqtogkmlhZSS6v8XEq3vKCdmr9oefdLbxFBDCZJaGnBwhXL+PV3vIWRh+7A0EIkoBrLRFoFtEyqvSqiloG+XjJraVqhjRBF8CEgVvCtJrHVRoJirMX7iIll/uHp9kWcPLEf+vCH/lBN6KySweCIRSRzKYRAklpaRY46S0Pr7JtI+b++fJhvP2ZoJMMgSeezJaIQncfGNoNmkouWtPn9V/Twh7++jleuyzitBsvrgao0AE80jlbwOGOoiGHQFSyr5pyx0PCK9VV+deMQaWuS2ZkGk1QpMIgkaEsRsYh1qE2YLWps3tlgWa3F+mW91NJADBlIleNN5W++PcbNm3sZs32ocfR4T3RKcBGxgoRIv/Ocv3Sa333lIj78q0u5bkOFNb3Qn0X6XU6P5NQDBG0QXBNizoARVlUs6xd4Nq3LeOXFyxjMDGPHR2iqo/AG1RRxtkwLTMS4fmaLOk8cCVSTwJrl4GrtkhYUKs9LkBBNmSPaaDFzRcfSY1iBoJQJbpKSxDbN43uIo4dLg0GAjlUXLQmWxlhK5orBuSqNWc+hw6MEk3XrsqhCKyrrN57P4LLl4FJQhxNBVPESn0J7ORliP/yhD/6hdvF5LKIWZwQIRC0oFCTroRkqHPIpn/6XFrf9+BgNM1i2fIgvY30sqJIWTS5cPM1bLl/Ib1y9lEvW9zJYyTHtQCZtrGkTo++gViWQmAA2Rpy2sbSwOovVnP56wvlnLeD0VQvJdJyJYyMUbQt2qAyZbJkkGywaoHl0KxdvWMniNBCoMRrg7++c4Iv3H2LMDZYpoyouFgRjIHiq2uTcxQ3eeEkPv3n1Ci5b30dfDYLJieQkBkSLTm3AYhMhxJy0Qx1RIkE81ik9GZyxuoeN6wbplQazM5NMt5VCIyGWtOgYcoxLmC0q7Dt4mP7BIdacUsXhMSVZ+rlXiE7/gVHXKbaC7yDTplPS104oU/WzTD25DTczQaqhE0VYRGwJu4shxIizJSRsxDI0OMyxkQkmZlqIgLUGQWnkBfWBQc6+8CICFjUWq0rQgNqTT22xH/7QB/+w889OTcGgMce6iNpIsCmtWKHhDbdthk/ePc5kkaJisRo7sCOkMTJgCi5bt4D/5XVLuPoMx6n1GbLEUxQFKQ7VgiK2MGmJFhljMCHiUGLIQQPOCi6JRBV8jFStZ+kgnLMiZfmSZWzdupfpogaJxYcc68DGQEbkwtN6eMVFC1gokRmT8J2tkb/49ghHtb/E+CkTYmMEo4Ee0+TCU2v87qsW8WsbHWtrDVITaIvF2xzjIkmJMONcSl5EVH2pIDGAsbRFCCYhquLIqckky/pzzlzWz8KFA+w8dJTxmTY268FHQ5JGQgxE6WfWpzx5YIRzV1U4ZbBGogF5PpSBWIaasYMciFJYQY1iNRJCJHMJRMga40zv3krWauC0LKuVFewSGgYpex6czIVPWVbFmIzHd+7vQK9hzuMcGx3jsquuJu3poYglkqUSUddhC5/EBNqU0JotCyxa5vVilTw28ZKTA8HBVBv++dYHGJ1NCEaRNNKKgPaTNCsMtka47rRp/vjNFc5d7FlcFzJ10FJsEBIXMc5hsz6igTx62r4gBAdSwSYJ1lkMjjCTgK9hkjqFKM40WN7X5FXnw9//0Vmcu2g/PXEMa3vxJAQt6Eub/NbrT2VhvUnDzLJ1DD7xtYcYDZa8yDBFP+RlfbeFoeqPckZtN//HO/u46iwYzCaJJiBR6QmB/jxQbbewOoPESLsdkUoV46pYzYjeY0RwpFQK6ImGJCpChkjGYF/kuvMNf/bba1iiT5KGaVCHDxkaE0QCUSKHJtr847f2cmjC4sIJS/1cigBGTyhdlBLW9ZSxf+ocJiqmCOjMLLUQsFE71K9O0U07FWti6S1DG8iBNkUxTfANUi09cZf3lFjDxLFjfPf2b6JFXm4+o2Ag4E8qFQNKs1BenASQspEDHGKreHUgKZNN+NRtB9jTrCLG4QPkXjFZBfEthsw0150Jv/Pq01nV26QvaVO0pjEaSa3DGUvhC3wsrY73EWsciXVYZylCQdRIBAofca6CRTChwMSABMVGQx/TrKzA+399A+ctKaj7MQgFfUmDN7zsFJb1AL5gSut87cFRds32kVMhsQkSPC5JSVD6TM41GxL+7H9+KWt7AmlrFBM81hqM0U61wkA0KAZrDYkrQ5wYA17BplW8jxADRiIxFiUbN5a4utOCHp3hjMGCT374Ks47pUGW5hgtSmw/5IChLb3ct1P4l21KrklZdFPtgBklElPSJjr3aK4+IB1i3TOnb5jOHgwS8UY7BbASzLJiKHykiJHEKXlrGooWJTuh08wjligQJRDEl5ZdwWCxkpBUKjy590mciSS2oN5rUJtj1NPvUu657TZGDh4gEjrXaUsk7yTXGYxiSldlcpCcJEZicKj0oLGKqGP7rilufXyGI24hVttAAmRoUVCXaV5ymuM9r1nKOUtaSCwwRspcSDyqxdxCltXOWJbiYlnyVAqkk8ArBowjoBhy0tggjYqNKTH04oIyJDO8dEXg+l9awYrKCKJtVg16rjtb6RMI9PGTJ3Pu2DzCtAwTYwXRiDMFIUTqeDYtq/HuV67kzN5p6r5JqilW6kRf5gBePLkIwWYErRBVgRxH3rHolIbCOEQ8wXii7cKVJYxoYsRGQ5XIxgWzvPtXV3DaokhKEysRqx7U0NYejsaV3Hr/XnYenyKKhVgieyaWcG+3PBtNqQx0ktWyWPqLKoPgbaSwZdaVBEiDIkHBJngRPC3yYooYWuU2NZa2CtFYsLZUThPxGkhMBQkJMbd4dQRR+vsyzjtnDZdcvJ5Va08hsUolKmF8nP1PPAZGUQzqhSSYMvU8ieLKKQbdBe6UXkygCAWJhWMevvHAXsYnLCaploxLEyAqxiScsaDBb716NSuWgi8mcCYQ8wTRrGS2PkPimQoEU3KMymKggnjQgI2GouXpr0euvCDheGMRn7xlJ5evWs7pQyC+wYzU+NqPpzl6HCpJBa8FuRhwCRRTLOkd4c1XrGLDqQlWCrz3c22cz7bE0lySRWXTqRn/8fwGf350miP0kjgheMEYh0jO5n3j3PbEAhYvTem3bdACazoZhEB8yjrKHAQrv0BY1aXhl98UOxa58/0dOogRoMjxjRnEt8qaQlSsiR1LLlgvJXihgrdCcFDEggx4yTln0GqnrFo+jOJZNLSM7439iOPHmqRJyuzUFKJlz7VJujWt57zc+P8rplsG7xLEYscdCwFV5dH9ngeezEEGkZiW0GY0SCgYqnquvXAhFy0HfAMrSmYsGkros9ByCtszlSAQTBnLRimJFaUVEmqVFG1N0UuDX7tsIa8+p4dLViUMZg2MCLsPw/27oYh9uNChZRhACmp2gk1n1Ljq7CppbJLnOcBTurGeTUTDGsXiqeAZkoL/cOEgF6+pUQvH0fYIRtuEGFErzNo+7nm8wZFZUJeWoQeBSOjwpE5sk26dVuZ6EZ6ZzPVUlHccQ5irekcoWzkRJBRou0GKJzEBiTkVayAEYlSczUqETYUQPFgwqWBDzupTFnPampVUjCVTS6JlG6nXQKGR3v4+Svqsnrigk58zdIHgEh2IRlANOGdo5ZEHdhxnf76IIvSWiWMEMSkJBWsXzHL1Ob0M+aNUTI5D0DxiXMlx005H2zOREq0o+yFK5qwDEhRHEVrE2CIzkT5aLNJp3vmKlVxyuiNJZghU2fJEk/3TAxRSJ4SiHHelLYxOsrp2nOtfsZoFBFLKzd9tR+wqwrPpIUzMSYoZsphTjQ0WVSI3vHIF67L9nNZX0J8VIAEfHYUb5PEDTR7b36QtrtMT0vWscd7mLxPSE6yeX0R5SzSoTKQjoicakVQ6x9GOMjRJY4FqORlE2iXvLJqMWcqUGSOlx4hlXkDhMSES8hbNZovx8Wm2/ngLU+NTqBUqQ/0sXbsaRLAo0ecEU/aknExxUFpfoRu3C9YYimAYaVb4yZNHmAiLcDYrrYcGVKAvbXDd2f2sHgKnDoLtxJWCmkAeCpwmz7iOUt70jiWUWGL5MUFJS5hOCkIUonc4TTl9uUMlp6UZox4e3HmIZhyisAnGOjTkOIWs1ebtv3whZwyBhrIBCGVu81trn/VG/4jBJjWa0RJRHJNcPDzI+zbVmJzYxa37l3D36HIKoAiGCe94aMdRNp1+Kplxc9S18tV0vEOX5tlleT5zmZuEpB2IlQ5jds5jlAZRgkeLAo1KYR3BJKApLV+yRlJrykYkE7ASOrfMIa7K8bFZ7n3oh7RbnumZNtOznqZkzETljW98IwuWL6cZyxDdGUunmH1SxWlnObpjKbSDYnhN2TPq2HmkBa5KjKV7tFaIfpoF9Qavfclp9DqPLyzqLUjEWPChjbVl95zG8Ixs1xy1GDpeM6DqUHVgE/JQYAyIJlibEcM04hIaocbeCdh1dBroQawQNGI7pL21iwZ42RlVah6woSyCzRtjE0JpDJ7NuT5lkOSY8ZFqJcFpm2FGee16w6Gt2xgZrrJ1apAjOZikSl5kPLZvlKkchjLb6YUDNJThWwempHOnOngSz9Q7lNu/A6PPdRaYual4paHQDiwqICWd/vjEDDatsW/fQbIkZcPaVTgjKIEQPWocqkIRhYNj42zevZs07cd7R9SMWK3y2je9kcuv+xWa1mGMIxSKM8yN4jnJFG5DEIvF0+3RNVrSqB89rEwVGUhRDtByKQB1JnnZWUtY2aPE2KCdOEzLMT52lKPH9lKYiFiHFUdPrc7Q4BD1en1uskSSJBRF8TOTJqCMV51YQggkzqLaLvkvmqFaoVAlSAOTBGJoIpKWds54dh9OOTIyS381xyWetg/MFCmZbXP6qYtZuhhsmAA8xiTEWHqG8fFxDhw4wMTEBMYYhoeHWbVqFbVaba6Rff4UjBgjzjlCCHPJ9/xcQ0Tw3pO6CjFCJc3RGPDaT2ImSMws/X6SjcMtTt3zJLN+LYVkGBPZe2iWA8dgzaoK6jvtn12uvyrReFRjFxD/hW56V52g2wc+bwsa0KgYgSDS6XNOUYFCCw4c38/SZYtY1r+AStsTVfHW4lNHkJLFEFVZsPwU7PBCWq0KrtbPKStP4/xfupyNV1xKblMUB9ESneI1kkbp5Ii/0CU9K1J6hqesa0S1PKkdB5q0Y4JJPNFZNOSowoDMcNmGdRgtiDaUYRGRm7/yJf7xpk/TajUoUVJLvVLjwgsu5DWveQ2XXHIJlUqFPM/nYvSuVe5uKpckFD5i05Q8tDEYrFHQGWJ0pImlLQ5PG+ss+JL/YlHGDuxh/XDOpS9bxNKFGbv3HONbD47RnB7j4lNXIT5iXDn3J4aIquHuu+/mpptuYuvWrczOzmKtpVqtcs011/DWt76V9evXPyW36Crv/HM2xuC9x3amQcQYSdOUwoMPQq1iyXNfJupiqfX00apXWFwc56wsYffMSppiibbCSMNxbALCcsWKxaBlQaqT1AJz8ZF2O+ufqU50exfmPjivohxLsp5YAy4jVnppuhqONsMLBhhaPEgaBEJOIVAkFRpEdu/bz2mrV+GKAqsFPbWMV73mNWT1FfQMrGJ45Voqi/oJVUNLwWAw0umX7wItJzdlwHVZoCdWtGQtzrThyGTER4uJbaI6cBWkUE6pBNYupGzC70yCKCQyMjXG4zv3Y2POgoWDtLXgaPMom3+yme9///v8l//yX3jFK15BvV7Hez+3obo/qkoIAbWWdgwYY9FoQD2JbYI6QnQl7G4DSt5RFkfwnpV9BR+4/lLWrMzolWmap/Wxcc0ifvD9hzlrqAOMUNYAACAASURBVKAnLaPBEAVjLD/4/g/4gz/4Aw4cOMDQ0BADAwM0Gg327dvHpz71KbZs2cKf/MmfcMYZZ2Bt6a26G757rl0lmX+86+VUDOoSinwaiRHVHJfUmG7DROHpj6NcOjzEt0caeATIaEkvj+8bQ8/uBTrfJVqO3ownAqNS5BcIkoC5+9396TJlTzSdhhDRtEp1eBkzo8dI2yOk1hCLNkYS1DmmEUaKgm/ceTf91TqrV6ylFj2JiRQUbFi7nqHTL0Wri2mbKkUSyU2rU9AUTOhU/8qpbb/YDn4WxUDEqO8sqIIEggTyCEUoUBWMJBAN4guqNmf5ghq9KUSUVBzOK8YUuMSAOK6//nq2bXuU++77AX/5V3/JRRddxLZt2/jjP/5jDh06NDeVrqsEMzMzzMzMkKZpyZXXgDOCGIuaDJWMELXkS2mLxDhMTDExoZKAhhwD/PLlqzl/taMvzlDJcxa6gpevhw+8/XxecmokCwGfZ6j0MzI6ydve9jYOHjzItddey9e+9jXuvfdeHnjgAT7+8Y/T39/Pfffdx80330xRFHPWPsZIURSEEOY8W7vdBsB3wpruNYX2DHXTRFRJXEZqEyYbOVoZZLKVkhpYXG2xuNqkyjRIAUnK6NQM1mo5lc4KYmInNKIE/uQEpvSLMZkUuiN3RDrJcyeH0FLdooBU6/QuW8PAaefS6lnMROyFyjJmk2EOUec7ew/y3754M9998EHOOfNsKiqkEXxRkBkwEyPkU6PkWuA7U1ydgO2M6rFQ9kVYwUs54/VkioOIVe0kT5RVY5syPRmZmRoFSipyog6rORQT9PdaKlWIvigvTC0EQ/AeKDDW4ENgaGiA6669lg1nrOdd73oXDzzwAPfffz8rVqwgxsi9997LTTfdxOjoKMYYrrnmGv7j295GNXH85V//Nd+5+14++tH/kwvOPRdHjVu/+lX+6m8+xfpzz+M//d7vs3TJKfh2wBmHxeISaITArO9hslWjt2qoGI9xbUzIid5iraOIBZ/+h39gfHycc889l/e9732sW7duLp9561vfSpIkvOc97+Hb3/42b3rTm+jt7eWP/uiPMMZw4YUXctdddzEzM8P555/PDTfcwLJlywB45JFH+NM//VOOHDlCb18vv3Ldtbz9+rdADKh6jG/Tmp5gYrZFXQuWZo6lvTlPjE3R1ApRLHsO7EcZwlglaiTEgkTSueLziWcgdItnz3QTnfhMF1kqC3hlsS3GiLGWXBVT6aF39QZ6Fi0htlqYQgnOYhtT3PKPX+SJLbt5/ZWXsnrxQmzRKsdPJilF4WH8OAd3PkZr0lMZXk5tsE5WNSXvKVhMFApTNvW4Lpp3EiGlUhkIBE1QI6gEvHiyquHMdSvZ3RhnJq/gAmS0WTLcwzkbF2ISyNRgQ4nsuJBgsSBNoijGWVRyxDhWrFjBhRdeyMMPP8xDDz3EG97wBm677TY++tGP0mq1OOusszhw4AAf+9jHKJpN3veud9GTZGx+8GH+3z//OP/wd59hdhZu+scv8y/3/IhzLzqfvt4+rFQghrJJT5XCpBycstz2wBEe23GQyy88m6vPTemrpwSjpA68bxJ9m+3bHyFJEi644ALWrFkzFwZ1rf0VV1zBueeey8MPP8zRo0ex1vLwww+zd+9ebrvtNiqVCo1Ggx/84Ads3ryZT3/600xNTfGxj32Mb3zjG1x77bUcPH6cv/6nz/KqX/5lli5dyrRv8uDtXyKZHWNs5AirTuljcbXKqqFIdbLBJFDr7eGcjecAeSf/UKyD6AO2MwCx3C7dQZC/4NCxE1O8yhpTtwgXI84Y8hjKgQ6SIi6hGOhFKO9zy0BiCi68+nXYZsFrX34lWT5LaiOFUZrGkVhDLc+Zmp5Aq9McKfbROlIw05ykX6sM9gwxMLAQHapjKym9kpazWf+1O/pfIc7EjML4zuCqktZr1LCsB/7TK1JOG6px2wP7OHx4hEvOXMzrX34q56129ANRGkSTQDAYbWA1x4knLwq8MXhTus0kSUiSBBGh2WwyMTHB3//933P06FHe//738/KXv5xdu3Zx44038om//CRve/Mbeckll7Bi2TJuv/2bPLF7G83pGXbtfpS+epVXXnkttUqVKAVilMJYchLueMLxuTsP8sjeaWabjvuP7uK+fcO8+WXDXLhUafmC1Gb4RpO8lc+FPmmazuUD3US4UqmQZRl5ntNqtZ6CGt1www289rWv5ciRI3zsYx/j7rvv5o477uDMM89k7969ALz+9a9neMlCevp7GVy8nKLd5NAj9xIOPoILOa3ZJhOTKcsz4dL6DI/5vZy9xvLrV5/FxavA+AZWPalRWrHs0w6x6BD3HIVJgHZnct8zC5UE7RhgS1lnKsNjULyeyB7STvE+j6Gs8QBtIxwfH2XvrsdYPdjPpW99I6f0W5LmRAd6t5ggtNKMydoA7Xo/3iit5iy3fOMbfOe738UFJUtSKmnG8rVrOGfj+Vx0wUs468z1DAz0/czk7rlHFswbU9m9X89mbcipgDdSzryJYKIlsQ5pz7C2J/COK/u5cPV69h4eY9PGIZbXciT3mBiJKcRgOw/8Kkv6MSiVrIoVRwhtQog0Zpvs37+fGCPr16/n2LFj7Nu3j6IouPXWW/nGN76BiDAxMcHU5BRHjo9w6prVnLfxHLY9tpV/+qebWH3qMo4cP8QZZ5zJ+RsvIksrFKFdejNjOTzR4s++uJ1HRoYIbjGmKoy3Ghza3KTK45z5qsUM9KQEn1Ov9tDX108Igb1793Ls2DFWr179FJ7SgQMH2LZtG4sXL2bRokWoKtZaVqxYwdve9jZOP/10Wq0W27Zt4/HHH+eb3/wmV1xxBRs3bmT79u28973v5cxzNvDGN72Bjes20m8iS0yLBWuXUrRa1JqeODWFtqY5tzLCe69eQc+lZ3HaQqj4JlVJEa8lNdo6gkbEBEwoU1wvJYJmVH+hvKEElDreRebVL+wJhMx2NprLMrRos3f/Xr7wla9z3w/uY/8TO/j9t72Oi85ZhZ86gri0rDeowaQ1WlJhuroAU+vDVCqM7T/Kjx/8CZOTTdTn1LKUUOTsO3SQu793D5VaL+vXn85v/9YNXHnllTjnEJG5mbZJkjwFdEnTdA6ef7bEedcgGMXGsstNMJjgSQCVlF7f4vLlwmUre2jpDG08FSxiEhpqqWgk68zpD5KgtkrMI2GyiYuesZlJPvfF/843v/lNFi5cyBVXXIG1lizLSNOUl770pQwPD5cokio+L1i8cCmDC4bY9PJN/POXv8T37riHxxcPM9PO+cD/9hGqPQP4dsCKRZMSUzo61uTAVMRXBiHk+BAgrTGj0CwCFYEk5CgRNYa3vvUt/PcvfIEf/ehHfPWrX+WGG26gVqvRbrc5cuQIN954I+Pj47zlLW9h1apVjI6O4r1nZmaG6elpiqKg3W4zMTFBq9Vi4cKFLFiwgA984AOcffbZ3H777Tzx5JN86EP/O6tdjf/wsvNxo0c5PDLFHfd8jyWnnsJ5ixfQnzaoxt0sXTyADE7j2wlWQMMo0aYUzhGiJTGK6Z6/lICHiSWpIjyLQExX6btgQLPZZOcTT/CVL93Cbbd/i7GZBu12m6su38T5F10C2sCnTSbbMyTGlHOpTAXXt4C0PkAjOg4eOsZnPvsFdu/Zh3UJNk2JMWCMYI1FrOJ9zqOPbuV3f/d3ueqqq3jPe97DunXryk3aGfYMJWpnjHnWFQHAqdoSV45phzcfiES8rfDEkZzFg3V6XUFAaCY97BmHo9t3ctFZa6j3eyCW3lY9qoGIcv+DP+RP/9vHaExOsGP3Tr5z13cZGBjg937v91i7di3eezZs2MDBgweJMXLBBRcwNjbGgw8+yK9c9yssOWUpIsLVV1/F2tUreXzHDp7YsZtzL7iETZf/EtiAoZzQUESlJRm7RqAwZVHORINJU7wvwAh9vf2kkiLqCURULJsueym/8zu/w2c/+1k++clPsn37djZs2ECr1eLee+/l+9//PuvWreN1r3sdAwMDTExMICKMjY3xiU98gte+9rXs27ePr3zlK3N1iePHj/PlL3+ZSqXC+9//fj73+c/z1Vtu5tu338r5ix06eoCk0WTDkiH6+h0LBisUtkC1yezxPfSP7GcyW8uxZpPTh5RgIUQlYjttp6bD6NVyAh/PTYzdDUG2b9/Orbfeym233cbBvftIswpGDNZaBhYsxPT00QyOXMCGAUCQNEXTCt5kHBmfYfO2x/n6t+5k844nqFSrdAeWhhBxouV4Hu1WvSHLMu655x727t3LDTfcwHXXXUdf34nQqeu9gac8NuvZEGe07F0uPUPJ/YlWaJmMW3+4nXpquPpl51Lrg8274Ut3Psbojh18aPg0NvZEjFG8LzBSxpcaA5u3PsSO7VugCLSD54KLLuQd73gHr371q6nX64QQeNe73sW+ffv4zGc+w8033zx3kWvXrGXTxS8lhsDKpSv47d98O//5P/+vOFfl+t/4LaIKSl4WsFQw1lAYeORAjifFCohzFAi4BCc5/dUMZxNc4siLJh7FWcsHP/hBFixYwGc+8xm+8IUvUKvVCCHQarXYtGkT733ve7nsssuIMc6dX5qm/PjHP+auu+4iz8vzePe7381ll13Gvn37+N73vsf9999Pf38/M1OTDPTU+I3ffAdZT8DkdYaSCmsW9tFOmqiBVixIXEpsTHB822Zu3vkYK9adwZpLFuJjQKW0nviIdGL8coKFR8XOhTrPlnQZvLfccguf+9zn2LlzJ3mekyQlmmVFSF3C1m3b2H3oCKedupxoU4RINOVTfY5NTPDYjs3c/a272LVnPzPNHJdVEWsJRRusYKRTZIuUz4mb92ATYwz79+/n4x//OM1mk+uvvx7nHKo6Fx51FeLZFJmeGlPBY2KFsu5fkLuU0VDnb++Y5svf+hGDi1dRH1jAY3uOMToNC53yvjeewQ2XzyAEQhBM4Xn00W08vOUR1AYK76lV66xbu47lpyxj0aJFc5XabhV6dHSUu+66iwcffJB6vc6VV17Jpk2XYdOURAxa5ASa3PT5m0myYa542UtZsXQYYQYjFSAhhFkey4f44E0HeXBHZCpUMDXBxxRnYZEZ46OvX8EbzsxJbYK3gaZpkUQhFVuGATt3cv/997Nlyxb6+/vZtGkTF110EQsWLCCEQJZlPPbYY7z5zW+mKApuvPFGNm/eTKvV4sorr+Tiiy+mVqvN5Rq33XYbO3fuZPGiRVx37Su56LwziTPHmTywnbj9Uer5LD4NeC3KZ6K1FUn7OdpI+a8Pwuvf9Xu88qwaaAMxSu4NTrqT0qFksXqCoUOfefbChfHxcT71qU/x2c9+lkajQZZlQFmsNKaEzNMspShyeuo1Ltt0GWvXrKZaq3Hk2HF+/PDD7Hj8CUII5eQL4/BRMUlCKNplnYGyQ1A0YmzZ3eejdPhxcQ7ZA2i1WnzoQx/ine9851xh88Qz9p7dB8XIzOSkWg2gaeeIJxfLtO3hG1vgTz//CIeKYXKNiMkwVKDd4orTCv7qf1pIj2viAAkOKwZVT7AFCJjOMLKyv6E8aWst7XZ7DsGZ/6BAkbK5KBohUbBFRF3Ei8WbDBfaWC1wRilCRpAUsTm376rykS8c5shYSnB1cm2iSQVpjfOS4Vn+799az/kDBTYUBOtpJzkuJph4wt0CT6mIAxRFQZIkxBjZtWsXb3rTm2g0GnzlK1/hrLPOmotjuxQMa+1TXhHBh4IsAWJB8G3aD9yDObQTo1MlD0iFJApqEma0ytemVnHRq3+d1YssjhmsFARceX/UlUmtlAWsYACRZ9wh9nQPDlFVDh8+zN/93d/xxS9+kTzPn5KkWpdQ5AVpmlDkbRLniDGSF4G88ORFIKuUeaDpdDUqoSycavmIMtMZRaPBY01ZI4lK6e3FlV2Q5mdJk9ZaPvKRj/CGN7xhLmfoIkzPpjIYNEFihmLL2FRdSXmOsHYBDPXXmaGPIuunLY5clXbWx9ZDMzywe5pg6kgMxE6l2EmGFYcEwQZDOQ7nxAmHUD795unIbeVrOfM1EhEDGpNOKNBCpIEzOeINGi1qUmaCY8sTRxiZSWmbjHZUhBT1OVXXZO1w5JTBTrHKFFjJSfGYziOW5v/Mp1PMP8/uZumeZ3ezz+99mA/7dY9HFKwlhEhhK8xUF9Oz5jx8fQGpKC4IqWaIF0wMJLbNppUpq6uzZfVLylhaYulBFFOifsK8Iukz3wxP9ySdvXv3cuONN3LLLbdQFAVZls2FIyKCjwFxhtCZc0UMGJQ0SajXexgYGKBaqeLElr3UGktqR/QYDThKZgGda4kayyc5ISCmM+z6BCFyfj7gvefzn/88W7Zsec4UAcCoyYm2wNsc7wq8Daj1OGY5dRDOOKVGVjRIfCdPpoGYwFSs8KUHp5hoWGohkMYG+GmiNjuPS7UksTtt+hmICjZaFChs2Wxu8DhtgRp8TMEkSBJp4nlyosIPtk3T9AnBOCKGqAkaAjY2uOSsxfTYMi4d1x7aUictfDkd4qe80nxl+OljaZrOoRrtdvspx37u4kahImk5WSJvUYltWgMb+MnUMFNmGE85vTs6R26EqDkLZx7jgc//f+2deZQd1X3nP797b1W916u6Wy2B1kYLEpuBFqsJ9mDwgg22Y2zGzjGZCc4yySQZYp8JBuIzsg+MQ0ziZGwSjx07OXgmMTGOCQQvgA3C2FgYBBIChEALSKi19KLe3lJV997541Y9tYTAQREZnMM9pw5Cev36var7u7/t+/t+P8fXv/x5Jib3U0st1aQNcRSaE2noCUnoBcgRwDzLBLkETG7ZsoWrr76ae+65h1qtdsCzURgOByDjxSNqMbY7cTjJsSqbcRXPzftAzVNcUlDUlJ/Yz8BEvdJshoiwefNmbr/99oMM9OgbAxJ4UZXDiQsjl5JjTEZX0mBweQ9zKzWMDaxvYhTW5aTSziPPa9ZvsVjfGRpExqJUgB1opQs04qv7QGGeIdykMIJ6YNLL+whPQuYgVYZGbPjBEznP7IFMabxEIIE6v6JzZsc5g8v6UM6RaeG+jaOs2bifpu8MBlO44Jmn+czErDQKrTWzZ8/mvvvu44knnuDUU0/FWkuWZa1Q6bDLCy73KInQukrmYm5bt58vP5LxcG2APfEiJknIfY7RDqMsHW6M2VGNW75yM6v/x6eZnE6Znm4UE3s5nkDvGLZSqUnx6lZ5uiZJwqZNm7j++utZt24dxhiSJGkVDFpG0ZqjKGGBEmQKinqWKk594y3Gu+AVSk/KAUMqKedbMzQztCjUQSjaw697772XrVu3kuf5QTMoR2sp7ys4ijlNVMGh48h8A62brFpZ4YRj6ogbx0uQORIxpDZh50Qn3/3ZXnbWkvClfIonRylP5rNWTPvqVkgIAwGyhPhYPN5HIFW8JDgl1CThiZ3wrZ/sYZ/rwYkDK4GuxTSounHecfoy5rWDlgajWcY//GQ/f3PPbp4ZqZLp9sPe0JkzFnDAINra2qhWq62udBQFWk2t9SvcXYMlwkpCzVVZ//w0X3pwnDX+PL60fTHfG57NLrqIE4+k42jbxCrP8PgYEY67/vk7/MUXvsR0o4kXj2hX6C6DeBtmEV7l3Z35HR9//HFuuukmHn744VZIWJ68B6mZKilEbApNOq8RNMppjBNi66jkjmrmacs8bZkEmHfLD5R/VjMGi1Tr30oPIq9wcooIe/fu5Stf+UqrJ3W0K0r6mmuvWY2kGCcYp9FOhexBNNbHtFVjpmuOn24ZI1XV0IvwHhMZMmsZHZ8kauvmlCXVQCCbC9qUsEpB1BEAycSjvcc4hRONlZhcqihfR5HiVczmfYa/+tbzPDKUUdfVEF/7YhjGJ5zcNsx/vXgxi3sduYpYt63G3/9kjB0ThlQ6WTE/oaeSt8KhmdgkOLDJDw2Z4MDJ+nNVLH2KNjlTTWFHmnDzD4Z5dDuM+w72OsW2kWkmm46VXVCJNVO6yoPbR/nrOx9g+1DIxzZt3sLU1ChnnnMGOjKgQuiprccpFdClr/L+eu9Zu3YtN9xwA4899lhrY5XJPxw8DosvJ+IKUJ/o4A8UlHIGVntyBZlWZEqTq/CaIGpYjpSWRqCKboMUZGa+ELDksEzcZQVJRHjqqad485vfzLx58446HENfe83Vq0XlaKeLXoOgxQfWBhUDET097Tz23H72TeQ43YV3eSgJiqZmY9Y9+SynDMxmdm9CZBT4rFDrLAfby+jwpaeFKtQ4pei6ePGUklmq0BwLBJQGozNyhN3TFf7mu0Pc80TKRNyNayXf4cZqUXzwTYoPnNFJYmqM5jHfenAXP9oOY3YWO/Y1WbGgk4WzYyo6cAUpwHkXpHgp4QouiK0IhGwejCrKfiq8TispQhgB0bREXpQFCWLi06aLbzw4xdfXjtOgm0xVaeh2JtFsfmYTfY0XaGR1/uHu+7j59h+yY9JjTBu5N3iEZzZvZHZ/HytWrkSpJFC8exfkuQTk0DvrZ8bT5WBocY/wPPX00/yP1at5etMmVPF9TOHpvAu4JW10eRdwLQ9UsqhoZmrBucC3hlVhatIq3VJUbQVAUmYeB0giSjErCdZWJNMvNYaZettRFLF161YuueSSV8zXjmTp6z557WovCicKK4Fv0/kMZQRLhtcJcaLoidtZ/9TzDKsFxGRol+N8jPcV0O2s27iZ2X0dLOy3GEmJ0URZhVxnWGUx1gfyMCkaYkrjXUkmEE5bKxml+ihKF3V0iyYn8U1SV2EobeerPxrjm4+OMKyPwedB4AOV412FSGUc31fjt98zj6WzJhCBR3dF3PLAELtqHWSqg1pueHLrDqrtszhhtqJdBO08VttC0dKEgSLA5BZJDE2bFzB2jyhIjQal0DYn8uG75b4aqFPE49QUuTeMp7P4xs88f333VkZsL5k1KFPB+5iKG8aOb+I73/k63//JQ2wZGiM3HXgJyjZKeSDHZhm7du7i+GUrmHfMMUGNCF+ULcEpA4XkrnFlzmUQDc28iY4Ca523nsfW/ZQ/+ZOb2PjU5vDzhLkRV3jy8qAKVFrl/x8Ib0ri+FYeQBnSqoKmtJBCxiLSIHBOaLxuBO4nkYIEwCLUESWkDlxcCaZzGCd7qLfOsowVK1awePHiltew1hJF0UHe/VUbw7XXfHL1AS2xcCOCuHtQy8QrjIno7ojYO2XYMFQDaxFtQIUhEOsVma/w/K4xfNTFsuO6EaswkuNwxCY0jKwv6E9UYM8Wca1qhfUebULtWYrSqgOMFpwYmrTzzETE/77rRe5aN81wo5OMSmDjIMzyKhRzzTC/flEbF6xsJxHLcNbB7Q/t5/4nLdNmFh6NQbG/2WTbzr24NGFOfzvtbRovWcFC7dCKQlcgweY5iTEBLO0DY0dewAcMGu8kdF9NjlcWK55Ud/DsWCd/+4Mhvv7gEHsa3YjvQCuF9RYUxH6ajnwcvX8LVdVElMWLKSh2aG06gNHRMXbt2sVb3vIWKpUKUmyAQBRQCHgJiDJB3AWwzhLFBrDkmWPN/Wv47B/fwKZnNhVJ+EsvEf9zLnfgYmaFaOZVvg84G6FUhPdZ6KB7hVZB7kADuDCpGNhqfNF4O9gI4EBoWib3PT09DA4OHpS7lf2rIw2d9DXXfnJ1qM6FeE5Q4ByxMaGWrDR5Dkmk6Tmmg+d2TrFvrI5VCU4FinKvNaltZ6zZzsbna+x7cRdLBvppa/NoF6FyCa7WAMriXda6YRaHE4+JI3wW2N3E5AUaNabezKlLBw89V+fz397Gmuc0u+t9KNOBszZQLgokYmjPJ7noBM1vvU3RZzxIBz/dPs3X7niGvc2FNKMEvMc4R6Y147bCcy84JmsTLF7cRVslAZthxBaVs4RUJVS8hywlM6HGb0SDphDr0CAGqxxNXSNTQhZ1smmX5i/v3MY/bnDssn3k0oVJS/xBKF9XXY23n76CFe3TvLDpZ2iV4UW/BIVa5is7d+7k0Ucf5V3velcL1alEtUiEPRKo3gW8WIyOsHmOcynf/c7dfOb6G3hh145A/+ntjM084/q5xvAvvADvFVqq2NyjlAMPsUkQDM4GY8EFhaNY61a4dGjZtNzcM5P6Wq3G2WefTX9/f6sgUFa/XjGPe0VjaOkzSGEMGi0Hmire5WjlSRJDR6RY0KF5bmiE4aYmy9qRqA2sQ0WezDWZqDfYtrfG2o1DmPZjOaZX054YvIrwLkcJaBKMqiAYjBHS5jRK8iBC6MLvzn1EU9rY4xP+7kcN/uLOnWzc18WY60biiMzW0XG4MZGOqdicM7pf4A8vP4ElvTGRiwHF7olJ7lv/PMO+O8SjSuG04HWgF55MLU9uG+bHG/bSNmsus7oT2qImbaZKo26xRHgEE0V420QXniC1Qf0zMmBtHRNXaLgOXpyscusDKav/7ml+tstQ0z2B2SMHSRKygiOVfJxVs0e57sPHc86yOfzw7u8xUc9DbnKYhLh84GNjY4yOjnLuuedSrVaxWR5kalWIwK1XeOURbbG5weiEH953P5/69PWMjk+FIf/cY5RB5JCLQPVCoe76r7nEKZQVxGmMKCLjECxZ1gwjvLHGiiXzlq5ZnVTbIuqNOshLewgz+z9lKDQ8PMyiRYs4/fTTD2JXOVJDmGEMQJm8FGxOwUv7oGWgPDavk2hhfk8VpQ1bt+9i3M3CWgfa46WOKDBSoem6GK0ZHtuyk6e2jLN30tCMKqQmDmS+KibDkGUWTUYSR+RO09CdjLqIF6eqPLbDcNcj+7j528/xvfVj7Lb9NHRniFuVA7GtkKbN7eOkuVNc/eE3sWoRRM2sNVfb1dNB75x5vLBjiJHxnFySkHB7wHm8VhB1M9aosPbpPWzeMcZEA+q2hzxOyNoVeI2iGaoXKiaXCi5uI9MVRpsJu5ttrNuh+e6jo/z9PcPc9fAIu+nHxX14a/AEgl6nAJ/S4Uc5Z0GD//b+kzljgdDb+sDMzQAAFqVJREFUZvDK89Ajj4S555/zLHfs2EFfXx+LFy8miQtxchWGdLxotLZAk7Rh+Oc77+HGz/0Ze/aNYQvWRCTC+SiUfQ+5nMRH71Lhv8oY6o0plLJo5YAQCmZYVBRRqbZx+qmnsXv3npft28xkUikh5lu3buXyyy9vecnSOxypQcjk+IS3KpS18NJKggJtvqNU+bQuQ0cJ1kXUsg6+83iN6+/cz86moakN6BrKRsTNNpAuGgqIJ8Gl9BjLvA7P0j5Y2i8s7BcWznKcuKCD+W2WSKDh23lw2zR3rx/h6d1Vto9q9tQ0dZIAa1BZiCdFgYpCzGkzKuI4a2CM331/H6sWzKazmTIrF2pJnYbKUMRMNqus2bCf//lPk2xv9tLUmji3GPE0VI6nEvoYEeCbzJaUY02TFYsr9M2Z5orzeji+Jwef0Mwjdu2r8cKeGjtHNNuGI7ZMRWx8cYqxtEK9ZjBRG3U3QewjIm+YjieL947Q6Thv6t7PZ97bz5nL++gwQZdg174h/ujTn+LB+x4IFbaXqaqUXfAFCxZw4403smrwDBQGKxaLC0TGTJOn49zx7Uf5ws23MDIxifMZUayxWYpThkwd3UrMSz4rYMVjRCF5k/n97aRTQ0yO7sb5DjKvyLVHlMFmljefcSbNxjQbN64/yDPMPPFnTht672k0GvzBH/wBv//7v9/6vWXJ+0iWTI5PeacKEfFWdSCUCJVXhKTK4sViEZw22CZkqpP71lu+8P1tPLG/nTrhZ4xTiG4n8w4nFk0MrolWo2hfR/uMNt1Gj2lw5pI2fu8DS1jcXaeiPA9tttxwy1rWN5ZSpx1RhsyHqo14iwGsBWfaifwU7fke3rpE8bF3L+PMgRRjUpTLQpm4fCISkaFpSIXvPZ7x1buf5bHhNnLfCRIj4mn6GHQCUgPfRPuU2Du6sx1ceHzO1R8+g0VddTCatdvb+OJtm9g0nDPpYuoO6r6K1x04YnwuaA1WTeO8BqmCGPANEj/GOXP28YkPns5ZCzRVP02scpo4nEQ8+OBaPvmJjzM2OoIxhjzPW0DBQx+2c47ly5fzl1+8mYGFi/HKkWMRiamlU9zx3bu4/k//mayyhGYyh1wF/TptART2NR829oH50Dap+joXnrWCgd6Ub3z1j8mmQyPVaQtK4Z2jq1rhrRe8jR/ct4bJyclW2bQc5DncBi8Ph9tvv50lS5YchGc6EmZEfd011xUyVoE6JBhFiRspGydFpUlrEIVRjhjH4r6YefN7GRoapz45jXcCUUIjraEjQSshtxovGhsJuamSyiym3bHUbBcv7ptiVkfOCcu6Mfk0Pb3dTKU9/Hhrg8y043XQQMB5EjEY64mBmJQu+yLvHuzh9y4d4Mx5QredCjysKlDaa6dD064QE8GlLF9YZfmSfsbGJxkeGaORevAmqIjiiHwaBpQEQLO42/E7717BijkJVaMZmtT87b1D3L25ym6zgAk6aEqEjbtwEgWiL2PCgyYFXcwWN+scG09x8aldXPuR5Zzc76j6ZmAxFMgKas+5c46hNjXJExs2tLBP5cTZzPJieToODQ2xZcsWzj7rbNraE7SBrJnx7Tvu5IbPfZ69jW707JMZi44jNbNo6h4avoeG6qWpe2nqntfw6qWhZpGbLhoupq9nDueedTJPPHI/02MTRErIXQPvAqAvrdWptLWzcNFihoaGwo48DERm5io9SLVaZXBwsFV6LQ+SVxsq6Ws/ed3qIkYiNL1si3wWb8IASVFfDpz8gWvHKo83OQt7Is5b0UVsm4zsr7OvlhBFEanPcLrYECpwnOhcUXEx2kVYFxicJ0d2sGT+XAb6YirAcQvb2LStxosj4zQlBhWDFaIcxHkSN85J/ZP8zrvn82sX9LG0N6PSnCLJI3Kp4H0F5eLQQMTjIotDiHSCZDlzu4VTjvMYhKmaZaQWtKCFehAJMYGkrKdR55cHZ3PZqoze2NH0VW77qef//mSUF5mDMwA5Bh8OAcqBG4N3QVg98o72bD+n9Db4T+f38ZtvrbCgXai4HOOCN8h8REUniLfEieeEFSfwyCOPsnPnztbJNxMWXnoGpRRRFLFraDe1Zs5pq05Fac9dt9/BzV/4X4yNjpGpLqTtGJr6mAJfpNBOhT8eXYzbS5co0AkOizWgnOXcVUvZ+LPvUxvZj8YXpXkDqoJIzN59w5x40gkMDw/TaDRam/mVNnWJEVu1ahWzZ89u9RzKYaBXs/Q111yz+kAPs+zilkjCA8JCgkM7R+LBaY+V4AZjlzIrVhx/fDcL53QTp0PUpobJbU5GEjqWLtx9Q8CyWwRvPN5kqOktnDw/4dR5CRXvwBge2tHFkzsmcVEX3lliJpll9rGkey/vOaOD//yOxbzlxArduoFRRY1chUmr0L1WRa7j8S4O/QHlsN6TYJkbwWkn9rOwv5uIfeRTo+QNC1RJtYcoJc41558ymzevDJOATRXx7R9v5/GhBjUzKxQbnEd7FRhCMGA9xjoSX6c7GuH4zv28/5ROfvu9S3j7aVX6Yk/smwVpm0Z0VFT3M7SAzjzVtg6OnTePtWvXMjU1ddBDLRtMM5G1znleeH4nHZ1tPPvsZv70c3/G6MgYmoimaKTSh0sWBeyWCMrFxTOdiQM4+lfxK8AHDWiVW05b0Y/JdvHMhidALE5nWCWhk+49DkttepqTTjqJ7du3txLln5cDTE1NMTAw0GI+hCOrKulrrr16tWBCOaxlBi2wRKv/KFgMHqwLmr06iIon4oiVIxLFQL/h3JP7mH/sXCItNCZrNCfHiMRhxCEuC91THWFJQWqcsVjz0Xcez8JqjnearXs0X7prAw0XY1yGTvdxyqKId5w5iysuWsCHfqmHpd0pHapJYoQ0z0ALeQiGWwVikRTBY+gI2mMqRZkYSVM6rSfyKQvnaE5b2cvSeXOp6jamp+qMT+/FqikqmaY3zjj5OOjubAu0zJ29/OyZPYzlbWivkNwGdKZYIt+k003TIzWWzMp419mzufKihfzy6V0s6kxJbB2DJ5IwIuskKIQqLWSuiUYRE5M5y/yFC8iyjHXr1tFsNlvVktJDlA+6/PtGvcG6x9dx35r7adZSIokxEpGKxUadqLalZDqcGfg4NCjLXsprdAXwnS80NjxYGDgm4h3nn8D/+epX6eqsIMZiCVBwrUNfa//YGIsWLWJiYoLp6WmSJHnFrrL3vsVweOGFF4bhoiMUndGfvPYPV+MNiqD2KRKgtooC40Ip+JfhxGNNhBYDzqGNI1NQt5bYayIxJEYYmC1ccGIb71jZxanz26hmozQn9xBrIbVCPTNEyjKnUuP3LlnB6ccKVSbZkXXwV3c8wq59Y8xvn+SClcJV71/GR8/r4+IT2jhhtkbVa6HJJUJmUyIaoIRUxUWI5wCFIcV4Czno2GGljveCVjHex6E063OqWrO0X3PuiojzTuxgcFGFrtoIZv8YtbEddPQnLD+2m6obZ053ile9PLV5Clu3JNrSHtXpVMMc17GPi5bU+LUL5vFf3nMsF52UMNBl6TA5cbshd02MSkmzHIkSMhXo+o2HCganYFoFkcRIG+bNm8f69esZGRlpNZJKIyiTaucc3nkibWjmTVKXo3yE8hqfO1yUUvcJqm0ZPgp9CCVVnAoogHIu4bW4ABIv5BKOJ+s0HdE073v7Kn58933UxifQypFbj/aaiAIQqIQVK1YwODjIhg0bWkWElwt5yg70li1bGBwcZNmyZUc8DmqCHQfJJGlNWJRTVFBi2X0B2bDe4RwYo8ltaBLFkUEyh/dNlBO6ilO6p18xMLeTC88+gb01eO5FeGrbGLtG6riszoqBXt5yvNAd5/hMqE/u56wVvVx8/mksnm+YVYV2BSprEJMjqSfRAhpy5xClERfobbSTGcGeK0zYI8aT2zwIlxCSskwKjk+BmAxcg6pRdB5TYfncLi4eHGS6Ac9uGSfze3HNaeIK9CjLJad3M7F3lJHxOpVqxLx5vRy3aCHL58P8Nojy8J46iAYDimatgTEK70BHMdaFeQSjFS63lDynSinEhs/Y39/PRz/6Ua677rrWyVg2nNI0bYUDoYLiEFHEOsJ7weHQkSXGE2fTSLoXm8wjlwr4NEz5SWiet85yV5zm+OD5CxYOfAG4dhl4X0DIIwJTqgoFAilZ/cr5ihCC5d5jlJDjcDpm2+797J2IeP+HPsjXbv4TFILREaI0eZaidAipR0ZGuOKKK1i7di3PPvvsS6YQZ270ssBgjOGmm27izDPPpLu7+4gMQiYmJl7TItvML1HGftba1gMuyXwP1Wl4va7SLZeb82ivmfX16elp/vzP/5yvfe1rram6mdWlAxAECpBdqP6JNFFSR5yhro7B9p1Js2eQmpmD+AztAiV80wiBKk+hc09sLeJzskjIxIFRkNbp76iy9Ng+lHhGJqfZtbfOZFMhcQdeUlAp4MFp8LqAehDAgaoZmo2qSmz38enfeg+n9e3iN6+4hNyDkQQQvA9SwCKKOXPmcOutt3LbbbfxxS9+8aDwsGRBTNP0oHullKLRaPDZz36WD33oQ0fUazj6fBuvsMqNrrUmjuOW+5tp7a+F6ubRXEqpFgHaa0FX0gp/vKezs5OrrrqKU089tRUXH/pZnHUFxY/DqyygRQmlcdEafAMau1GuiSChkKAhVYRGJjkUehypcdQrTTItQILJNMf3Gz71G+dw86cu4s/+8G18/r+/ld+5fAULO/cR2RGwTXCmMAQpPktAQaMIHsQpsA5nNT96eCOLjlvJ0mUrsS54NZtl4XWiSNOUer0OwMUXX8zAwMBBeZLWmkajQRRFrWcxc3Lvm9/8JqOjo0d07//NjOHQjmK5ygd/6Otej+vQGemjTVVS/o6ZYovt7e185jOfob+/nzzPMcYcNIVXrpAv5ehiYqxUSVU+RaV70LaGFOGwKyBESEECV6iGWuXxOgOtQGJ0LgwuX8jbz1zIgvYGK/prnLNc8ZuXD/KxD19AR5JjxIMPGs6BBCAP2CvxAcQpwRi0B60qPLRuM0QdLFl+UijQeE8cGZxX5LmjWq0yPT3N5OQkS5Ys4Vd/9VdbpeSZ978MFWu1WqsErZRi27ZtbNy48YgijNe2J8+BBzazOzjTG8wsFZav+0VZ/xpQ2L/0/Y0xLF68mMsuu4xbbrmlNfJYLilxVmIRsYQ5RYKklPNoSdH5PrLmKLqaYWfwqgbItG8ZA0jBBFfgsbymMTmOb47TXlEkrob3dZyucOF5J/H1O9YzPhL6TsEjBfJqK+GUd06AGJRBuxSPYSKNWPv4VlaedAYP3P8DGhP7CeFRhNLSCkPHx8ex1nLppZfywAMPsGfPHjo6OloSaEmS0Gg02LNnD9u3b2/dj3q9zgsvvNDqNbya9ZobQ7lmJkGHrkNZKl6v63Ce4Gh7B6VCqDCTqqWjo4P3vve9rF27lg0bNhzE7eScQ3FgqMbjA2LA61AOF/Auw9f2EnWOk5oucBrlCA0vr4MheYIyUDOGSINLybXjsW0T/PUdm/j1D5zLnK5ucl+nqROe2rafqaYEhABBTVoFBi3wRS4laTA2CdxOOYKudPGt7/2YKy5+E+2VhHRKcN4CGlG0iAjGxsbw3rNp0yayLGN0dJQtW7bgvW+VmyuVCnEc+L6MMa15hlqt9vo0hkOrAIfi1A895Y42f+bRXDPDl5ki6kfz8+Z53iJYM8a0au3Lli3jV37lV1izZs1BIRMUo59ehUNdaM0Xe5eFcCX3uOkhTLYPos4Cd+ZxzoROsYRZA+MVWtpp1BtIFJN7z84pxZdvf5J7fvg4F79tkPkLutm0bZg7f/A4o7VZOBUXMJ6gFFF6lcDBW9yXRopIIP9KbcbmFyewUTeLFy1kdHgPSEBH+yJkrtfrLa2LW265BeAlkUM501Dq8JX3Lc/zIz5U/7+ESeV6OWTm63XNNN7Dxe1HY80kySorJ2XV6H3vex/3338/995774HKWzEHHVmNwdD0NmiP+NAyFRS9Pf1ceeUVPL7b8E8byrDIE5iwIDD0ETZypoiVIvdpMdfcyZSbzTNjU2y+9Sk8NZAqoufgpArkIE28NIvgSwO2aENbsDlKa3IHgUIIhhuKPZOWefMWsO6xRwIQWTw9s3uZPbuPwcFBvvzlL7N582aMMS854Q8tXJT7qPQq1Wr19WkMb6yjs8ry4erVq0nTlDVr1gREp83xSoe5ZwdeF/0WFzbH0uNXcuWVv8sF776Ef1zzDN/f8ASpxIHGvtS8FY9XYCnYA6WUUQwz2IgijQQxFTwxyldQxEHnzzvwtsV8UWDVKUeGS8ybFUUYF7U0XMK2oQmWn3g68v3vMqe/l8ULjwMRxsfH+cY3vtHiuC1Rqy9HyTNTYKasLi1cuPCIyALeMIZfoOW9Z9asWXziE5/AWsv999+PjiKs+DA67EMTzHtP3miyaGAB1173R5w+eD5Ju+Kc05fSZR5nJMsCiUApnVuMWzoVGPLCmSpFw7UJ0gjvKwJonFU4W9Li5wgO5zWeKOQLKm/l6MHePFZRIBks9Vzz7AsjvO2CVVz5G7/N0I7nWPfIOvbvH6feaB5UUcuy7BVBdyUfbtmpnjdvHitXrjwiz/Bv2md4Yx35mpk0DwwMcOONN3L55ZdTrVTChjNC5nMio9DiufyDl3Hrrf/AL731fOKqYG2DBXO7OGFRD8bVCyMo2PJKuEEAFRWnvEY5hfY2CFsilOOc4nyAxWuH04GJMdhV8Z6ShrJtUZEqNeNKj6NNha07RmjrX876J57hW7d9i11DQ0zXai3UqXOu5R1eqfdUQlOiKGL//v185CMfYf78+W+ESf+eV9lwK7v2fX193HDDDVz5sY+x8cknGXpxCG8d3T3tnDG4iqUDy9BtCc2siVKBazZR8NazTuThTfeACTrTB9YMvKlXpbPAE7ibcDEgiLPgc7wovC48i1dIrgNPFgqnCsPy+oChFYEXItjcMz6RsnXXNKvOOI8H7/k2Sh3gaSpDIqVUq3L0cp6hLDWLCB/4wAe47LLLwld4PfYZ3lhHZ5WVtkPZv48bGOC4gYEwkORdYLtG4b2QOhvIASTFuQSbwcnLjqW3PWIoDbD6oqgdeG1L2H6RYHtROArdDiJwOdrVQRy5cmFOpdj0ngjtIsQrUpWBcsX7qMLkbPGbFFqE6VrOk1v2cuk556Moq3JlkSJgrWbCMF5pGWN45zvfycc//nHa2tpaOcSrNYg3jOEXaB2uZCgioTTpgSKmt0XIY0STW4foBJyQSMrKYzNOWlxl79MTQU9NwHvXmm4ozSP8wiL9LYa9AjeVBQ/KemwY0EM8aNdECHxPibMB1exoTUpaG5Jp5R3aThO7KbY8tZH2//BuTj3rl3jisQfQOsG6En79UlLhsiI5k7Ye4NJLL+Wqq65i7ty5/6ry/BvG8Au/Qhe5THoP4lxyrmjGaWKtyfIm8/sUl56/nN7+GlqHcV5fIJOPZvNQinmGQFsvODlAOGxsTkWaRPkYne0J//HDH2HBMW2BJkjiw3/LGX2qsrKmlOKyyy7j/PPPb/1dya5xJKDP1xy1+sZ6rdcMeMXBc2YHLRGFtQ6tFI3Uk+dSeJJyo/GyP3skSxCUUziVY1VeSB4UXKveIE6IlUb7nEoEzfp4oLl8mc9wqFcsK05a64NGYmeioF/1Z37DGP49rEMT4cO8wnuMiYqEMxhH8Q8B2nS0AYdeo1yEVzleMrwEaTOPkOcQR1VsHhDk1mYYIzhnf645Hg6xcLQgMf8Pz+/Fm2X5AX4AAAAASUVORK5CYII=;" vertex="1" parent="1">
          <mxGeometry x="159.17000000000002" y="152" width="216.67" height="90" as="geometry" />
        </mxCell>
        <mxCell id="b_Wbd-ZXqIB6Z8tAtHYO-16" value="Repositorio Imagenes&lt;br&gt;jaimehenao8126" style="text;html=1;align=center;verticalAlign=middle;resizable=0;points=[];autosize=1;strokeColor=none;fillColor=none;" vertex="1" parent="1">
          <mxGeometry x="556.86" y="97" width="140" height="40" as="geometry" />
        </mxCell>
        <mxCell id="b_Wbd-ZXqIB6Z8tAtHYO-17" value="Developer/Devops" style="text;html=1;align=center;verticalAlign=middle;resizable=0;points=[];autosize=1;strokeColor=none;fillColor=none;" vertex="1" parent="1">
          <mxGeometry x="207.5" y="122" width="120" height="30" as="geometry" />
        </mxCell>
        <mxCell id="b_Wbd-ZXqIB6Z8tAtHYO-18" value="Repositorio&lt;br&gt;JaimeHenoaChallange/KubeOps" style="text;html=1;align=center;verticalAlign=middle;resizable=0;points=[];autosize=1;strokeColor=none;fillColor=none;" vertex="1" parent="1">
          <mxGeometry x="30" y="334" width="200" height="40" as="geometry" />
        </mxCell>
        <mxCell id="b_Wbd-ZXqIB6Z8tAtHYO-22" value="Argocd/hello-world-kantox-kubeops" style="text;html=1;align=center;verticalAlign=middle;resizable=0;points=[];autosize=1;strokeColor=none;fillColor=none;" vertex="1" parent="1">
          <mxGeometry x="159.17" y="584" width="210" height="30" as="geometry" />
        </mxCell>
        <mxCell id="b_Wbd-ZXqIB6Z8tAtHYO-23" value="Cluster Kubernetes/minikube" style="text;html=1;align=center;verticalAlign=middle;resizable=0;points=[];autosize=1;strokeColor=none;fillColor=none;" vertex="1" parent="1">
          <mxGeometry x="444.47" y="585" width="180" height="30" as="geometry" />
        </mxCell>
      </root>
    </mxGraphModel>
  </diagram>
</mxfile>
